<?xml version="1.0" encoding="UTF-8" standalone="no"?>
<!-- Created with Inkscape (http://www.inkscape.org/) -->

<svg
   xmlns:dc="http://purl.org/dc/elements/1.1/"
   xmlns:cc="http://creativecommons.org/ns#"
   xmlns:rdf="http://www.w3.org/1999/02/22-rdf-syntax-ns#"
   xmlns:svg="http://www.w3.org/2000/svg"
   xmlns="http://www.w3.org/2000/svg"
   xmlns:sodipodi="http://sodipodi.sourceforge.net/DTD/sodipodi-0.dtd"
   xmlns:inkscape="http://www.inkscape.org/namespaces/inkscape"
   width="235.88939mm"
   height="221.74771mm"
   viewBox="0 0 235.88939 221.74772"
   version="1.1"
   id="svg8"
   inkscape:version="0.92.2 (5c3e80d, 2017-08-06)"
   sodipodi:docname="circle-devops.svg"
   inkscape:export-filename="C:\Users\user\circle-devops.png"
   inkscape:export-xdpi="172.28"
   inkscape:export-ydpi="172.28">
  <defs
     id="defs2" />
  <sodipodi:namedview
     id="base"
     pagecolor="#ffffff"
     bordercolor="#666666"
     borderopacity="1.0"
     inkscape:pageopacity="0.0"
     inkscape:pageshadow="2"
     inkscape:zoom="0.35"
     inkscape:cx="400"
     inkscape:cy="560"
     inkscape:document-units="mm"
     inkscape:current-layer="layer1"
     showgrid="false"
     fit-margin-top="0"
     fit-margin-left="0"
     fit-margin-right="0"
     fit-margin-bottom="0" />
  <metadata
     id="metadata5">
    <rdf:RDF>
      <cc:Work
         rdf:about="">
        <dc:format>image/svg+xml</dc:format>
        <dc:type
           rdf:resource="http://purl.org/dc/dcmitype/StillImage" />
        <dc:title></dc:title>
      </cc:Work>
    </rdf:RDF>
  </metadata>
  <g
     inkscape:label="Layer 1"
     inkscape:groupmode="layer"
     id="layer1"
     transform="translate(520.2823,-26.306404)">
    <path
       style="opacity:1;fill:#005797;fill-opacity:1;stroke:none;stroke-width:8.26578426;stroke-linecap:square;stroke-linejoin:miter;stroke-miterlimit:4;stroke-dasharray:none;stroke-dashoffset:0;stroke-opacity:1;paint-order:fill markers stroke"
       d="m -362.96057,36.36638 -15.78869,37.724312 a 67.659278,67.659278 0 0 1 43.15188,54.138818 l 23.77219,3.09025 16.85272,-7.05849 a 108.47134,108.47134 0 0 0 -67.9881,-87.89489 z"
       id="path815-1-0-8"
       inkscape:connector-curvature="0" />
    <path
       style="opacity:1;fill:#69d2fd;fill-opacity:1;stroke:none;stroke-width:8.26578426;stroke-linecap:square;stroke-linejoin:miter;stroke-miterlimit:4;stroke-dasharray:none;stroke-dashoffset:0;stroke-opacity:1;paint-order:fill markers stroke"
       d="m -358.75056,26.306404 -4.2106,10.060368 a 108.47134,108.47134 0 0 0 -39.60223,-7.504969 108.47134,108.47134 0 0 0 -68.17568,24.214026 l 25.23773,32.03267 a 67.659278,67.659278 0 0 1 42.93795,-15.434199 67.659278,67.659278 0 0 1 23.81405,4.416266 l -3.88659,9.286256 39.22707,-16.241387 z"
       id="path815-1-0-9"
       inkscape:connector-curvature="0" />
    <path
       style="opacity:1;fill:#005797;fill-opacity:1;stroke:none;stroke-width:8.26578426;stroke-linecap:square;stroke-linejoin:miter;stroke-miterlimit:4;stroke-dasharray:none;stroke-dashoffset:0;stroke-opacity:1;paint-order:fill markers stroke"
       d="m -477.7216,44.212806 6.98253,8.863023 a 108.47134,108.47134 0 0 0 -40.2947,84.257901 108.47134,108.47134 0 0 0 1.34307,16.1308 l 40.43887,-4.74803 a 67.659278,67.659278 0 0 1 -0.96996,-11.38277 67.659278,67.659278 0 0 1 24.72045,-52.225231 l 6.06733,7.701338 4.85397,-42.178303 z"
       id="path815-1-0-20"
       inkscape:connector-curvature="0" />
    <path
       style="opacity:1;fill:#69d2fd;fill-opacity:1;stroke:none;stroke-width:8.26578426;stroke-linecap:square;stroke-linejoin:miter;stroke-miterlimit:4;stroke-dasharray:none;stroke-dashoffset:0;stroke-opacity:1;paint-order:fill markers stroke"
       d="m -492.2468,121.29492 -28.0355,33.41295 10.5394,-1.23765 a 108.47134,108.47134 0 0 0 68.05787,84.55401 l 15.79231,-37.73361 a 67.659278,67.659278 0 0 1 -43.30278,-51.58135 l 10.35906,-1.21647 z"
       id="path815-1-0-4"
       inkscape:connector-curvature="0" />
    <path
       style="opacity:1;fill:#005797;fill-opacity:1;stroke:none;stroke-width:8.26578426;stroke-linecap:square;stroke-linejoin:miter;stroke-miterlimit:4;stroke-dasharray:none;stroke-dashoffset:0;stroke-opacity:1;paint-order:fill markers stroke"
       d="m -360.01354,189.30886 a 67.659278,67.659278 0 0 1 -43.4206,15.85743 67.659278,67.659278 0 0 1 -22.43222,-3.91759 l 4.29638,-10.26553 -39.22758,16.2419 15.3417,40.82904 3.87263,-9.25318 a 108.47134,108.47134 0 0 0 38.14909,7.17733 108.47134,108.47134 0 0 0 68.68573,-24.60108 z"
       id="path815-1-0-05"
       inkscape:connector-curvature="0" />
    <path
       style="opacity:1;fill:#69d2fd;fill-opacity:1;stroke:none;stroke-width:4.38406658;stroke-linecap:square;stroke-linejoin:miter;stroke-miterlimit:4;stroke-dasharray:none;stroke-dashoffset:0;stroke-opacity:1;paint-order:fill markers stroke"
       d="m -295.15858,120.31307 -40.43836,4.74855 a 67.659278,67.659278 0 0 1 0.99271,11.53624 67.659278,67.659278 0 0 1 -24.77058,52.24332 l -6.12469,-7.7742 -4.85397,42.17831 43.14155,6.41872 -6.98459,-8.8656 a 108.47134,108.47134 0 0 0 40.40425,-84.20055 108.47134,108.47134 0 0 0 -1.36632,-16.28479 z"
       id="path927-2-8"
       inkscape:connector-curvature="0" />
    <path
       style="opacity:1;fill:#005797;fill-opacity:1;stroke:none;stroke-width:4.38406658;stroke-linecap:square;stroke-linejoin:miter;stroke-miterlimit:4;stroke-dasharray:none;stroke-dashoffset:0;stroke-opacity:1;paint-order:fill markers stroke"
       d="m -284.39291,118.38121 -28.03515,33.41291 -33.41034,-26.19783"
       id="path927-2-8-3-8"
       inkscape:connector-curvature="0"
       sodipodi:nodetypes="ccc" />
  </g>
</svg>
