<?xml version="1.0" encoding="UTF-8" standalone="no"?>
<!-- Generator: Adobe Illustrator 19.0.0, SVG Export Plug-In . SVG Version: 6.00 Build 0)  -->

<svg
   xmlns:dc="http://purl.org/dc/elements/1.1/"
   xmlns:cc="http://creativecommons.org/ns#"
   xmlns:rdf="http://www.w3.org/1999/02/22-rdf-syntax-ns#"
   xmlns:svg="http://www.w3.org/2000/svg"
   xmlns="http://www.w3.org/2000/svg"
   xmlns:sodipodi="http://sodipodi.sourceforge.net/DTD/sodipodi-0.dtd"
   xmlns:inkscape="http://www.inkscape.org/namespaces/inkscape"
   version="1.1"
   id="Layer_1"
   x="0px"
   y="0px"
   viewBox="0 0 503.467 503.467"
   style="enable-background:new 0 0 503.467 503.467;"
   xml:space="preserve"
   sodipodi:docname="frost.svg"
   inkscape:version="0.92.2 (5c3e80d, 2017-08-06)"><metadata
     id="metadata45"><rdf:RDF><cc:Work
         rdf:about=""><dc:format>image/svg+xml</dc:format><dc:type
           rdf:resource="http://purl.org/dc/dcmitype/StillImage" /><dc:title></dc:title></cc:Work></rdf:RDF></metadata><defs
     id="defs43" /><sodipodi:namedview
     pagecolor="#ffffff"
     bordercolor="#666666"
     borderopacity="1"
     objecttolerance="10"
     gridtolerance="10"
     guidetolerance="10"
     inkscape:pageopacity="0"
     inkscape:pageshadow="2"
     inkscape:window-width="640"
     inkscape:window-height="480"
     id="namedview41"
     showgrid="false"
     inkscape:current-layer="g6" /><g
     transform="translate(1 1)"
     id="g6"><circle
       style="fill:#333333"
       cx="250.733"
       cy="250.734"
       r="247.467"
       id="circle2" /><path
       inkscape:connector-curvature="0"
       d="m 408.35609,320.93889 -38.07062,-20.24141 32.99181,-17.91542 c 6.08502,-3.30446 8.10937,-10.5259 4.52112,-16.12967 -3.58825,-5.60219 -11.42817,-7.46645 -17.51489,-4.16356 l -45.44666,24.67825 -68.52302,-36.43392 68.51108,-36.42763 45.46029,24.67511 c 2.03801,1.10725 4.27556,1.63182 6.4824,1.63182 4.37958,0 8.64489,-2.07314 11.0308,-5.80009 3.58656,-5.60377 1.56048,-12.82521 -4.52454,-16.12968 l -32.99691,-17.90913 38.07914,-20.24612 c 6.11742,-3.25264 8.21341,-10.4568 4.68144,-16.09042 -3.53198,-5.63517 -11.35484,-7.56539 -17.47227,-4.31119 l -38.07062,20.24299 -0.3462,-35.27642 c -0.0631,-6.50527 -5.8582,-11.76194 -12.90509,-11.67242 -7.06395,0.0581 -12.73966,5.37918 -12.67485,11.88445 l 0.47581,48.59479 -68.5196,36.43233 v -72.8584 l 45.93953,-23.91025 c 6.14983,-3.20081 8.31745,-10.38613 4.84176,-16.05115 -3.4757,-5.66344 -11.2798,-7.6612 -17.42964,-4.45882 l -33.35165,17.35943 V 89.923247 c 0,-6.505269 -5.72688,-11.779223 -12.79082,-11.779223 -7.06395,0 -12.79083,5.273954 -12.79083,11.779223 V 130.41236 L 204.59141,113.0545 c -6.15324,-3.20238 -13.95224,-1.20619 -17.42964,4.45882 -3.47569,5.66345 -1.30807,12.85035 4.84176,16.05116 l 45.93783,23.91024 v 72.85683 l -68.51961,-36.43233 0.47582,-48.59479 c 0.0648,-6.50527 -5.61091,-11.82634 -12.67485,-11.88445 -0.0392,0 -0.0767,0 -0.11768,0 -7.00938,0 -12.72431,5.20328 -12.78741,11.67399 l -0.34621,35.27485 -38.07061,-20.24299 c -6.117427,-3.2542 -13.9403,-1.32241 -17.472273,4.31119 -3.531973,5.63362 -1.435983,12.83778 4.681443,16.09042 l 38.07744,20.24612 -33.002037,17.91228 c -6.085026,3.30289 -8.111093,10.52433 -4.524545,16.12967 2.385915,3.72695 6.651232,5.80009 11.032522,5.80009 2.20683,0 4.44267,-0.52614 6.48239,-1.63182 l 45.46541,-24.67511 68.51278,36.42764 -68.52472,36.43391 -45.45347,-24.68296 c -6.08162,-3.30289 -13.926657,-1.44021 -17.514912,4.16356 -3.588253,5.60377 -1.563892,12.82521 4.521125,16.1281 l 32.996927,17.91699 -38.070616,20.24141 c -6.117425,3.25264 -8.213416,10.4568 -4.681443,16.09042 2.368861,3.77877 6.668282,5.89118 11.088792,5.89118 2.169317,0 4.369357,-0.50886 6.383477,-1.57999 l 38.07061,-20.24299 0.34621,35.27799 c 0.0631,6.46914 5.77804,11.67399 12.78742,11.67399 0.0392,0 0.0784,0 0.11767,-0.002 7.06395,-0.0581 12.73967,-5.37918 12.67486,-11.88445 l -0.47582,-48.59635 68.52131,-36.43234 v 72.85997 l -45.93783,23.91024 c -6.14983,3.20081 -8.31745,10.38614 -4.84176,16.05116 2.35181,3.83217 6.68534,5.98541 11.14678,5.98541 2.13181,0 4.29431,-0.49158 6.28286,-1.52659 l 33.35165,-17.35786 v 40.48962 c 0,6.50527 5.72688,11.77923 12.79083,11.77923 7.06394,0 12.79082,-5.27396 12.79082,-11.77923 v -40.48911 l 33.35165,17.35786 c 1.98855,1.03501 4.14934,1.52659 6.28286,1.52659 4.46144,0 8.79497,-2.15324 11.14678,-5.98541 3.47569,-5.66345 1.30807,-12.85035 -4.84176,-16.05116 l -45.93953,-23.91024 v -72.8584 l 68.5196,36.43076 -0.48776,48.59479 c -0.0665,6.50527 5.6075,11.82791 12.67146,11.88759 0.0409,0.002 0.0801,0.002 0.12107,0.002 7.00768,0 12.72261,-5.20327 12.78742,-11.67084 l 0.35474,-35.2827 38.07572,20.24456 c 2.01414,1.07112 4.21416,1.57999 6.38348,1.57999 4.4205,0 8.71993,-2.11398 11.08879,-5.89118 3.53197,-5.63362 1.43599,-12.83778 -4.68314,-16.09042 z"
       id="path2"
       style="fill:#80d6fa;fill-opacity:1;stroke-width:1.6366142" /></g><g
     id="g10" /><g
     id="g12" /><g
     id="g14" /><g
     id="g16" /><g
     id="g18" /><g
     id="g20" /><g
     id="g22" /><g
     id="g24" /><g
     id="g26" /><g
     id="g28" /><g
     id="g30" /><g
     id="g32" /><g
     id="g34" /><g
     id="g36" /><g
     id="g38" /></svg>