<?xml version="1.0" encoding="UTF-8" standalone="no"?>
<svg
   xmlns:v="http://schemas.microsoft.com/visio/2003/SVGExtensions/"
   xmlns:dc="http://purl.org/dc/elements/1.1/"
   xmlns:cc="http://creativecommons.org/ns#"
   xmlns:rdf="http://www.w3.org/1999/02/22-rdf-syntax-ns#"
   xmlns:svg="http://www.w3.org/2000/svg"
   xmlns="http://www.w3.org/2000/svg"
   xmlns:sodipodi="http://sodipodi.sourceforge.net/DTD/sodipodi-0.dtd"
   xmlns:inkscape="http://www.inkscape.org/namespaces/inkscape"
   inkscape:export-ydpi="94.016045"
   inkscape:export-xdpi="94.016045"
   inkscape:export-filename="C:\Users\user\OneDrive\Personal\01. MarczakIO\images\2019-08-secure-logic-app-with-api-management\splash.png"
   inkscape:version="0.92.2 (5c3e80d, 2017-08-06)"
   sodipodi:docname="dc.svg"
   id="svg564"
   viewBox="0 0 517.72998 291.78"
   version="1.1"
   height="291.78mm"
   width="517.72998mm">
  <sodipodi:namedview
     inkscape:window-maximized="1"
     inkscape:window-y="2147"
     inkscape:window-x="-13"
     inkscape:cy="664.03243"
     inkscape:cx="430.36122"
     inkscape:zoom="0.60529064"
     fit-margin-bottom="0"
     fit-margin-right="0"
     fit-margin-left="0"
     fit-margin-top="0"
     showguides="false"
     inkscape:current-layer="g17861"
     showgrid="false"
     id="namedview566"
     inkscape:window-height="1719"
     inkscape:window-width="2736"
     inkscape:pageshadow="2"
     inkscape:pageopacity="0"
     guidetolerance="10"
     gridtolerance="10"
     objecttolerance="10"
     borderopacity="1"
     bordercolor="#666666"
     pagecolor="#ffffff" />
  <metadata
     id="metadata570">
    <rdf:RDF>
      <cc:Work
         rdf:about="">
        <dc:format>image/svg+xml</dc:format>
        <dc:type
           rdf:resource="http://purl.org/dc/dcmitype/StillImage" />
        <dc:title></dc:title>
      </cc:Work>
    </rdf:RDF>
  </metadata>
  <defs
     id="defs568" />
  <style
     type="text/css"
     id="style289">
		.st1 {fill:#0078d7;stroke:none;stroke-linecap:butt;stroke-width:0.75}
		.st2 {fill:none;fill-rule:evenodd;font-size:12px;overflow:visible;stroke-linecap:square;stroke-miterlimit:3}
	</style>
  <style
     type="text/css"
     id="style291">.st0{fill:#FFFFFF;}</style>
  <style
     type="text/css"
     id="style293">
		.st1 {fill:#0078d7;stroke:none;stroke-linecap:butt;stroke-width:0.75}
		.st2 {fill:none;fill-rule:evenodd;font-size:12px;overflow:visible;stroke-linecap:square;stroke-miterlimit:3}
	</style>
  <g
     style="display:none"
     id="g525"
     transform="translate(0.07048799,1.4751701)">
    <g
       transform="translate(-38.221,20.64)"
       id="g301">
      <path
         d="m 192.8,146.82 v 21.421 h 25.564 c 2.8316,2.5072 6.7557,5.8467 6.7557,5.8467 l -1.4309,-5.8467 h 4.0969 V 146.82 Z"
         style="fill:#414141"
         id="path295"
         inkscape:connector-curvature="0" />
      <path
         d="m 198.41,161.48 h 23.473"
         style="fill:none;stroke:#ffffff;stroke-width:2.16490006;stroke-linecap:round"
         id="path297"
         inkscape:connector-curvature="0" />
      <path
         d="m 198.41,154.12 h 23.473"
         style="fill:none;stroke:#ffffff;stroke-width:2.16490006;stroke-linecap:round"
         id="path299"
         inkscape:connector-curvature="0" />
    </g>
    <g
       transform="matrix(1.3123,0,0,1.3123,13.174,83.82)"
       id="g311">
      <path
         d="m 37.488,21.047 c 0,-6.256 -5.07,-11.349 -11.349,-11.349 -6.279,0 -11.349,5.07 -11.349,11.349 0,4.651 2.791,8.628 6.767,10.395 -0.372,0.628 -1.279,1.488 -2.186,2.047 -1.744,1.116 -3.814,1.698 -5.721,2.535 -0.326,0.14 -0.814,0.349 -0.837,0.581 -0.14,1.07 -0.14,2.163 -0.209,3.233 0.233,0.07 0.349,0.14 0.465,0.14 5.395,1 10.279,-0.279 14.698,-3.093 4.605,-2.932 9.721,-7.699 9.721,-15.838 z"
         style="fill:#ffffff"
         id="path303"
         inkscape:connector-curvature="0" />
      <path
         d="m 26.326,13.465 c -4.14,-0.023 -7.535,3.279 -7.581,7.372 -0.047,4.186 3.279,7.605 7.419,7.628 4.163,0.023 7.581,-3.326 7.581,-7.465 -10e-4,-4.116 -3.326,-7.488 -7.419,-7.535 z"
         style="fill:#414141"
         id="path305"
         inkscape:connector-curvature="0" />
      <path
         d="m 24.86,25 c -0.558,0 -0.953,-0.116 -1.209,-0.349 -0.256,-0.233 -0.395,-0.628 -0.395,-1.163 v -1.279 c 0,-0.558 -0.233,-0.86 -0.698,-0.86 v -0.698 c 0.465,0 0.698,-0.302 0.698,-0.907 v -1.209 c 0,-0.535 0.14,-0.907 0.395,-1.163 C 23.906,17.116 24.326,17 24.86,17 v 0.721 c -0.488,0 -0.721,0.279 -0.721,0.837 v 1.209 c 0,0.651 -0.233,1.07 -0.674,1.233 v 0.023 c 0.442,0.14 0.674,0.535 0.674,1.209 v 1.209 c 0,0.302 0.047,0.512 0.163,0.651 0.116,0.14 0.302,0.209 0.558,0.209 z"
         style="fill:#ffffff"
         id="path307"
         inkscape:connector-curvature="0" />
      <path
         d="m 27.628,24.302 c 0.256,0 0.442,-0.07 0.558,-0.209 0.116,-0.14 0.163,-0.349 0.163,-0.651 v -1.209 c 0,-0.651 0.233,-1.047 0.674,-1.209 V 21 c -0.442,-0.163 -0.674,-0.581 -0.674,-1.233 v -1.209 c 0,-0.558 -0.233,-0.837 -0.721,-0.837 V 17 c 0.535,0 0.953,0.116 1.209,0.372 0.256,0.256 0.395,0.651 0.395,1.163 v 1.233 c 0,0.605 0.233,0.907 0.698,0.907 v 0.698 c -0.465,0 -0.698,0.279 -0.698,0.86 v 1.279 c 0,0.535 -0.14,0.907 -0.395,1.163 -0.256,0.233 -0.674,0.349 -1.209,0.349 z"
         style="fill:#ffffff"
         id="path309"
         inkscape:connector-curvature="0" />
    </g>
    <g
       transform="matrix(0.35432,0,0,0.35432,143.04,42.269)"
       id="g325">
      <g
         transform="translate(-8.7921,17.566)"
         style="fill:#ffffff"
         id="g315">
        <path
           d="M 69.52,-8.3299 C 49.806,-8.316394 32.336,4.3011 26.222,22.9411 V 2.3031 h -0.0739 c 0.0039,-0.062568 0.0063,-0.12529 0.0072,-0.18808 -2.43e-4,-1.6033 -0.95759,-2.9029 -2.1384,-2.9027 -1.1806,2.256e-4 -2.1376,1.2996 -2.1378,2.9027 5.3e-5,0.062739 0.0016,0.12548 0.0047,0.18808 h -0.07183 v 59.509 h 0.10284 c -0.01903,0.18847 -0.03488,0.37704 -0.04754,0.5657 1.79e-4,15.634 21.374,28.308 47.739,28.308 26.365,1.4e-5 47.739,-12.674 47.739,-28.308 -0.009,-0.25578 -0.0245,-0.51147 -0.0455,-0.767 h 0.1323 V 2.1018 h -0.0739 c 0.004,-0.062568 0.006,-0.12529 0.007,-0.18808 5e-5,-1.6036 -0.95738,-2.9036 -2.1384,-2.9034 -1.1808,2.295e-4 -2.1379,1.3001 -2.1378,2.9034 5e-5,0.062739 0.002,0.12546 0.005,0.18808 h -0.0718 v 21.533 c -5.8896,-18.986 -23.525,-31.944 -43.502,-31.965 z"
           style="fill:#ffffff"
           id="path313"
           inkscape:connector-curvature="0" />
      </g>
      <g
         style="fill:#58b1dd"
         id="g323">
        <path
           d="m 34.613,50.687 c -6.8628,-1.17e-4 -12.426,7.9093 -12.426,17.666 -8.3e-5,9.7567 5.5633,17.666 12.426,17.666 h 52.434 c 6.8628,1.16e-4 12.426,-7.9093 12.426,-17.666 8.2e-5,-9.7567 -5.5633,-17.666 -12.426,-17.666 z"
           style="fill:#58b1dd;paint-order:normal"
           id="path317"
           inkscape:connector-curvature="0" />
        <ellipse
           cx="34.612999"
           cy="68.352997"
           rx="7.5641999"
           ry="10.754"
           style="fill:#ffffff;paint-order:normal"
           id="ellipse319" />
        <ellipse
           cx="87.047997"
           cy="68.352997"
           rx="7.5641999"
           ry="10.754"
           style="fill:#ffffff;paint-order:normal"
           id="ellipse321" />
      </g>
    </g>
    <g
       transform="matrix(2.2178,0,0,2.2178,128.66,80.711)"
       style="font-size:12px;color-interpolation-filters:sRGB;fill:#ffffff;fill-rule:evenodd;stroke-linecap:square;stroke-miterlimit:3"
       id="g337">
      <g
         style="fill:#ffffff"
         v:groupContext="foregroundPage"
         v:index="1"
         v:mID="0"
         id="g335">
        <title
           id="title327">Page-1</title>
        <v:pageProperties
           v:drawingScale="1"
           v:drawingUnits="19"
           v:pageScale="1"
           v:shadowOffsetX="9"
           v:shadowOffsetY="-9" />
        <g
           transform="translate(0.75,-0.75)"
           style="fill:#ffffff"
           v:groupContext="shape"
           v:mID="104"
           id="g333">
          <title
             id="title329">Sheet.104</title>
          <path
             class="st1"
             d="m 19.31,16.95 a 1.45,1.45 -180 1 0 -2.9,0 1.45,1.45 -180 1 0 2.9,0 z m 4.47,3.55 V 9.58 A 0.9655,0.9655 -180 0 0 22.8145,8.6145 L 11.8905,8.61 v 1.93 h 9.96 v 9.96 z m -9.3,-3.55 a 1.4482,1.4482 -180 1 0 -2.89,0 1.4482,1.4482 -180 1 0 2.89,0 z M 19,25.28 V 23.35 H 9.04 V 13.39 H 7.11 v 10.93 a 0.9655,0.9655 -180 0 0 0.9655,0.9655 z M 15.45,1.5 A 15.448,15.448 -180 1 0 30.9,16.95 15.448,15.448 -180 0 0 15.45,1.5 Z m 0,1.93 A 13.517,13.517 0 1 1 1.93,16.95 13.533,13.533 0 0 1 15.45,3.43 Z"
             style="fill:#ffffff;stroke:none;stroke-width:0.75;stroke-linecap:butt"
             id="path331"
             inkscape:connector-curvature="0" />
        </g>
      </g>
    </g>
    <path
       d="m 139.54,180.3 v 22.264 h 6.1743 v 6.0803 l 4.5703,-6.0803 h 23.867 V 180.3 Z"
       style="fill:#ffffff"
       id="path339"
       inkscape:connector-curvature="0" />
    <path
       d="m 144.83,195.39 h 23.473"
       style="fill:none;stroke:#414141;stroke-width:2.16490006;stroke-linecap:round"
       id="path341"
       inkscape:connector-curvature="0" />
    <path
       d="m 144.83,188.03 h 23.473"
       style="fill:none;stroke:#414141;stroke-width:2.16490006;stroke-linecap:round"
       id="path343"
       inkscape:connector-curvature="0" />
    <g
       transform="translate(-54.096,13.407)"
       id="g381">
      <g
         style="fill:#ffffff"
         aria-label="10011101"
         id="g361">
        <path
           d="m 262.16,110.89 h 1.3332 v -5.1211 h -1.3126 q -0.18087,0 -0.31006,-0.12403 -0.12403,-0.12919 -0.12403,-0.31005 0,-0.18087 0.12403,-0.30489 0.12919,-0.1292 0.31006,-0.1292 h 2.1807 v 5.9893 h 0.86817 v -1.8087 q 0,-0.1757 0.12402,-0.30489 0.12919,-0.12919 0.31006,-0.12919 0.18087,0 0.30489,0.12919 0.12919,0.12402 0.12919,0.30489 v 2.2428 q 0,0.18087 -0.12919,0.31006 -0.12402,0.12403 -0.30489,0.12403 h -3.5037 q -0.18087,0 -0.31006,-0.12919 -0.12403,-0.13436 -0.12403,-0.31523 0,-0.1757 0.12403,-0.29972 0.12919,-0.12403 0.31006,-0.12403 z"
           style="fill:#ffffff;stroke-width:0.26458001"
           id="path345"
           inkscape:connector-curvature="0" />
        <path
           d="m 268.12,110.92 v -5.1935 q 0,-0.34107 0.24804,-0.58911 0.24805,-0.24805 0.58911,-0.24805 h 2.7078 q 0.3359,0 0.57878,0.24805 0.24804,0.24804 0.24804,0.58911 v 5.1935 q 0,0.34623 -0.24804,0.59428 -0.24288,0.24288 -0.58912,0.24288 h -2.6975 q -0.3514,0 -0.59427,-0.24288 -0.24288,-0.24805 -0.24288,-0.59428 z m 3.514,-0.031 v -5.1211 h -2.6458 v 5.1211 z"
           style="fill:#ffffff;stroke-width:0.26458001"
           id="path347"
           inkscape:connector-curvature="0" />
        <path
           d="m 274.51,110.92 v -5.1935 q 0,-0.34107 0.24805,-0.58911 0.24805,-0.24805 0.58911,-0.24805 h 2.7078 q 0.33589,0 0.57877,0.24805 0.24805,0.24804 0.24805,0.58911 v 5.1935 q 0,0.34623 -0.24805,0.59428 -0.24288,0.24288 -0.58911,0.24288 h -2.6975 q -0.3514,0 -0.59428,-0.24288 -0.24288,-0.24805 -0.24288,-0.59428 z m 3.514,-0.031 v -5.1211 h -2.6458 v 5.1211 z"
           style="fill:#ffffff;stroke-width:0.26458001"
           id="path349"
           inkscape:connector-curvature="0" />
        <path
           d="m 281.32,110.89 h 1.3332 v -5.1211 h -1.3126 q -0.18087,0 -0.31006,-0.12403 -0.12402,-0.12919 -0.12402,-0.31005 0,-0.18087 0.12402,-0.30489 0.12919,-0.1292 0.31006,-0.1292 h 2.1807 v 5.9893 h 0.86817 v -1.8087 q 0,-0.1757 0.12402,-0.30489 0.12919,-0.12919 0.31006,-0.12919 0.18087,0 0.30489,0.12919 0.12919,0.12402 0.12919,0.30489 v 2.2428 q 0,0.18087 -0.12919,0.31006 -0.12402,0.12403 -0.30489,0.12403 h -3.5037 q -0.18087,0 -0.31006,-0.12919 -0.12402,-0.13436 -0.12402,-0.31523 0,-0.1757 0.12402,-0.29972 0.12919,-0.12403 0.31006,-0.12403 z"
           style="fill:#ffffff;stroke-width:0.26458001"
           id="path351"
           inkscape:connector-curvature="0" />
        <path
           d="m 287.71,110.89 h 1.3333 v -5.1211 h -1.3126 q -0.18086,0 -0.31005,-0.12403 -0.12403,-0.12919 -0.12403,-0.31005 0,-0.18087 0.12403,-0.30489 0.12919,-0.1292 0.31005,-0.1292 h 2.1808 v 5.9893 h 0.86816 v -1.8087 q 0,-0.1757 0.12403,-0.30489 0.12919,-0.12919 0.31006,-0.12919 0.18086,0 0.30489,0.12919 0.12919,0.12402 0.12919,0.30489 v 2.2428 q 0,0.18087 -0.12919,0.31006 -0.12403,0.12403 -0.30489,0.12403 h -3.5037 q -0.18086,0 -0.31005,-0.12919 -0.12403,-0.13436 -0.12403,-0.31523 0,-0.1757 0.12403,-0.29972 0.12919,-0.12403 0.31005,-0.12403 z"
           style="fill:#ffffff;stroke-width:0.26458001"
           id="path353"
           inkscape:connector-curvature="0" />
        <path
           d="m 294.09,110.89 h 1.3332 v -5.1211 h -1.3126 q -0.18087,0 -0.31006,-0.12403 -0.12402,-0.12919 -0.12402,-0.31005 0,-0.18087 0.12402,-0.30489 0.12919,-0.1292 0.31006,-0.1292 h 2.1808 v 5.9893 h 0.86816 v -1.8087 q 0,-0.1757 0.12402,-0.30489 0.1292,-0.12919 0.31006,-0.12919 0.18087,0 0.30489,0.12919 0.1292,0.12402 0.1292,0.30489 v 2.2428 q 0,0.18087 -0.1292,0.31006 -0.12402,0.12403 -0.30489,0.12403 h -3.5037 q -0.18087,0 -0.31006,-0.12919 -0.12402,-0.13436 -0.12402,-0.31523 0,-0.1757 0.12402,-0.29972 0.12919,-0.12403 0.31006,-0.12403 z"
           style="fill:#ffffff;stroke-width:0.26458001"
           id="path355"
           inkscape:connector-curvature="0" />
        <path
           d="m 300.06,110.92 v -5.1935 q 0,-0.34107 0.24805,-0.58911 0.24805,-0.24805 0.58911,-0.24805 h 2.7078 q 0.3359,0 0.57878,0.24805 0.24805,0.24804 0.24805,0.58911 v 5.1935 q 0,0.34623 -0.24805,0.59428 -0.24288,0.24288 -0.58911,0.24288 h -2.6975 q -0.3514,0 -0.59428,-0.24288 -0.24288,-0.24805 -0.24288,-0.59428 z m 3.514,-0.031 v -5.1211 h -2.6458 v 5.1211 z"
           style="fill:#ffffff;stroke-width:0.26458001"
           id="path357"
           inkscape:connector-curvature="0" />
        <path
           d="m 306.87,110.89 h 1.3332 v -5.1211 h -1.3126 q -0.18087,0 -0.31006,-0.12403 -0.12403,-0.12919 -0.12403,-0.31005 0,-0.18087 0.12403,-0.30489 0.12919,-0.1292 0.31006,-0.1292 h 2.1807 v 5.9893 h 0.86817 v -1.8087 q 0,-0.1757 0.12402,-0.30489 0.12919,-0.12919 0.31006,-0.12919 0.18086,0 0.30489,0.12919 0.12919,0.12402 0.12919,0.30489 v 2.2428 q 0,0.18087 -0.12919,0.31006 -0.12403,0.12403 -0.30489,0.12403 h -3.5037 q -0.18087,0 -0.31006,-0.12919 -0.12403,-0.13436 -0.12403,-0.31523 0,-0.1757 0.12403,-0.29972 0.12919,-0.12403 0.31006,-0.12403 z"
           style="fill:#ffffff;stroke-width:0.26458001"
           id="path359"
           inkscape:connector-curvature="0" />
      </g>
      <g
         transform="matrix(0.26458,0,0,0.26458,0.069831,0)"
         style="fill:#ffffff"
         aria-label="10101001"
         id="g379">
        <path
           d="m 990.57,380.61 h 5.0391 v -19.356 h -4.9609 q -0.68359,0 -1.1719,-0.46875 -0.46875,-0.48828 -0.46875,-1.1719 0,-0.6836 0.46875,-1.1524 0.48828,-0.48828 1.1719,-0.48828 h 8.2422 v 22.637 h 3.2813 v -6.8359 q 0,-0.66406 0.4687,-1.1523 0.4883,-0.48828 1.1719,-0.48828 0.6836,0 1.1523,0.48828 0.4883,0.46875 0.4883,1.1523 v 8.4766 q 0,0.68359 -0.4883,1.1719 -0.4687,0.46875 -1.1523,0.46875 h -13.242 q -0.6836,0 -1.1719,-0.48828 -0.46875,-0.50781 -0.46875,-1.1914 0,-0.66406 0.46875,-1.1328 0.48828,-0.46875 1.1719,-0.46875 z"
           style="fill:#ffffff"
           id="path363"
           inkscape:connector-curvature="0" />
        <path
           d="m 1013.1,380.73 v -19.629 q 0,-1.2891 0.9375,-2.2266 0.9375,-0.9375 2.2265,-0.9375 h 10.234 q 1.2695,0 2.1875,0.9375 0.9375,0.9375 0.9375,2.2266 v 19.629 q 0,1.3086 -0.9375,2.2461 -0.918,0.91797 -2.2266,0.91797 h -10.195 q -1.3281,0 -2.2461,-0.91797 -0.9179,-0.9375 -0.9179,-2.2461 z m 13.281,-0.11719 v -19.356 h -10 v 19.356 z"
           style="fill:#ffffff"
           id="path365"
           inkscape:connector-curvature="0" />
        <path
           d="m 1038.8,380.61 h 5.039 v -19.356 h -4.9609 q -0.6836,0 -1.1719,-0.46875 -0.4687,-0.48828 -0.4687,-1.1719 0,-0.6836 0.4687,-1.1524 0.4883,-0.48828 1.1719,-0.48828 h 8.2422 v 22.637 h 3.2812 v -6.8359 q 0,-0.66406 0.4688,-1.1523 0.4883,-0.48828 1.1718,-0.48828 0.6836,0 1.1524,0.48828 0.4883,0.46875 0.4883,1.1523 v 8.4766 q 0,0.68359 -0.4883,1.1719 -0.4688,0.46875 -1.1524,0.46875 h -13.242 q -0.6836,0 -1.1719,-0.48828 -0.4688,-0.50781 -0.4688,-1.1914 0,-0.66406 0.4688,-1.1328 0.4883,-0.46875 1.1719,-0.46875 z"
           style="fill:#ffffff"
           id="path367"
           inkscape:connector-curvature="0" />
        <path
           d="m 1061.4,380.73 v -19.629 q 0,-1.2891 0.9375,-2.2266 0.9375,-0.9375 2.2266,-0.9375 h 10.234 q 1.2695,0 2.1875,0.9375 0.9375,0.9375 0.9375,2.2266 v 19.629 q 0,1.3086 -0.9375,2.2461 -0.918,0.91797 -2.2266,0.91797 h -10.195 q -1.3281,0 -2.2461,-0.91797 -0.918,-0.9375 -0.918,-2.2461 z m 13.281,-0.11719 v -19.356 h -10 v 19.356 z"
           style="fill:#ffffff"
           id="path369"
           inkscape:connector-curvature="0" />
        <path
           d="m 1087.1,380.61 h 5.0391 v -19.356 h -4.961 q -0.6836,0 -1.1718,-0.46875 -0.4688,-0.48828 -0.4688,-1.1719 0,-0.6836 0.4688,-1.1524 0.4882,-0.48828 1.1718,-0.48828 h 8.2422 v 22.637 h 3.2813 v -6.8359 q 0,-0.66406 0.4687,-1.1523 0.4883,-0.48828 1.1719,-0.48828 0.6836,0 1.1523,0.48828 0.4883,0.46875 0.4883,1.1523 v 8.4766 q 0,0.68359 -0.4883,1.1719 -0.4687,0.46875 -1.1523,0.46875 h -13.242 q -0.6836,0 -1.1719,-0.48828 -0.4687,-0.50781 -0.4687,-1.1914 0,-0.66406 0.4687,-1.1328 0.4883,-0.46875 1.1719,-0.46875 z"
           style="fill:#ffffff"
           id="path371"
           inkscape:connector-curvature="0" />
        <path
           d="m 1109.7,380.73 v -19.629 q 0,-1.2891 0.9375,-2.2266 0.9375,-0.9375 2.2265,-0.9375 h 10.234 q 1.2695,0 2.1875,0.9375 0.9375,0.9375 0.9375,2.2266 v 19.629 q 0,1.3086 -0.9375,2.2461 -0.918,0.91797 -2.2266,0.91797 h -10.195 q -1.3281,0 -2.2461,-0.91797 -0.9179,-0.9375 -0.9179,-2.2461 z m 13.281,-0.11719 v -19.356 h -10 v 19.356 z"
           style="fill:#ffffff"
           id="path373"
           inkscape:connector-curvature="0" />
        <path
           d="m 1133.8,380.73 v -19.629 q 0,-1.2891 0.9375,-2.2266 0.9375,-0.9375 2.2266,-0.9375 h 10.234 q 1.2696,0 2.1875,0.9375 0.9375,0.9375 0.9375,2.2266 v 19.629 q 0,1.3086 -0.9375,2.2461 -0.9179,0.91797 -2.2265,0.91797 h -10.195 q -1.3282,0 -2.2461,-0.91797 -0.918,-0.9375 -0.918,-2.2461 z m 13.281,-0.11719 v -19.356 h -10 v 19.356 z"
           style="fill:#ffffff"
           id="path375"
           inkscape:connector-curvature="0" />
        <path
           d="m 1159.6,380.61 h 5.039 v -19.356 h -4.9609 q -0.6836,0 -1.1719,-0.46875 -0.4687,-0.48828 -0.4687,-1.1719 0,-0.6836 0.4687,-1.1524 0.4883,-0.48828 1.1719,-0.48828 h 8.2422 v 22.637 h 3.2812 v -6.8359 q 0,-0.66406 0.4688,-1.1523 0.4883,-0.48828 1.1719,-0.48828 0.6836,0 1.1523,0.48828 0.4883,0.46875 0.4883,1.1523 v 8.4766 q 0,0.68359 -0.4883,1.1719 -0.4687,0.46875 -1.1523,0.46875 h -13.242 q -0.6836,0 -1.1719,-0.48828 -0.4687,-0.50781 -0.4687,-1.1914 0,-0.66406 0.4687,-1.1328 0.4883,-0.46875 1.1719,-0.46875 z"
           style="fill:#ffffff"
           id="path377"
           inkscape:connector-curvature="0" />
      </g>
    </g>
    <text
       x="237.92148"
       y="86.374153"
       style="font-size:10.58300018px;line-height:1.25;font-family:sans-serif;letter-spacing:0px;word-spacing:0px;fill:#000000;stroke-width:0.26458001"
       xml:space="preserve"
       id="text385"><tspan
         x="237.92148"
         y="96.029648"
         style="stroke-width:0.26458001"
         id="tspan383" /></text>
    <text
       x="254.75948"
       y="119.30176"
       style="font-size:10.58300018px;line-height:1.25;font-family:sans-serif;letter-spacing:0px;word-spacing:0px;fill:#000000;stroke-width:0.26458001"
       xml:space="preserve"
       id="text389"><tspan
         x="254.75948"
         y="128.95726"
         style="stroke-width:0.26458001"
         id="tspan387" /></text>
    <g
       transform="translate(-56.213,13.448)"
       id="g427">
      <g
         style="fill:#ffffff"
         aria-label="10011101"
         id="g407">
        <path
           d="m 128.82,110.84 h 1.3332 v -5.1211 h -1.3126 q -0.18087,0 -0.31006,-0.12402 -0.12403,-0.12919 -0.12403,-0.31006 0,-0.18087 0.12403,-0.30489 0.12919,-0.12919 0.31006,-0.12919 h 2.1807 v 5.9893 h 0.86817 v -1.8087 q 0,-0.1757 0.12402,-0.30489 0.12919,-0.12919 0.31006,-0.12919 0.18086,0 0.30489,0.12919 0.12919,0.12402 0.12919,0.30489 v 2.2428 q 0,0.18087 -0.12919,0.31006 -0.12403,0.12402 -0.30489,0.12402 h -3.5037 q -0.18087,0 -0.31006,-0.12919 -0.12403,-0.13436 -0.12403,-0.31523 0,-0.1757 0.12403,-0.29972 0.12919,-0.12402 0.31006,-0.12402 z"
           style="fill:#ffffff;stroke-width:0.26458001"
           id="path391"
           inkscape:connector-curvature="0" />
        <path
           d="m 134.79,110.88 v -5.1935 q 0,-0.34106 0.24804,-0.58911 0.24805,-0.24805 0.58911,-0.24805 h 2.7078 q 0.3359,0 0.57877,0.24805 0.24805,0.24805 0.24805,0.58911 v 5.1935 q 0,0.34623 -0.24805,0.59428 -0.24287,0.24288 -0.58911,0.24288 h -2.6975 q -0.3514,0 -0.59428,-0.24288 -0.24287,-0.24805 -0.24287,-0.59428 z m 3.514,-0.031 v -5.1211 h -2.6458 v 5.1211 z"
           style="fill:#ffffff;stroke-width:0.26458001"
           id="path393"
           inkscape:connector-curvature="0" />
        <path
           d="m 141.17,110.88 v -5.1935 q 0,-0.34106 0.24805,-0.58911 0.24805,-0.24805 0.58911,-0.24805 h 2.7078 q 0.33589,0 0.57877,0.24805 0.24805,0.24805 0.24805,0.58911 v 5.1935 q 0,0.34623 -0.24805,0.59428 -0.24288,0.24288 -0.58911,0.24288 h -2.6975 q -0.3514,0 -0.59428,-0.24288 -0.24288,-0.24805 -0.24288,-0.59428 z m 3.514,-0.031 v -5.1211 h -2.6458 v 5.1211 z"
           style="fill:#ffffff;stroke-width:0.26458001"
           id="path395"
           inkscape:connector-curvature="0" />
        <path
           d="m 147.98,110.84 h 1.3332 v -5.1211 h -1.3126 q -0.18087,0 -0.31006,-0.12402 -0.12402,-0.12919 -0.12402,-0.31006 0,-0.18087 0.12402,-0.30489 0.12919,-0.12919 0.31006,-0.12919 h 2.1807 v 5.9893 h 0.86817 v -1.8087 q 0,-0.1757 0.12402,-0.30489 0.12919,-0.12919 0.31006,-0.12919 0.18087,0 0.30489,0.12919 0.12919,0.12402 0.12919,0.30489 v 2.2428 q 0,0.18087 -0.12919,0.31006 -0.12402,0.12402 -0.30489,0.12402 h -3.5037 q -0.18087,0 -0.31006,-0.12919 -0.12403,-0.13436 -0.12403,-0.31523 0,-0.1757 0.12403,-0.29972 0.12919,-0.12402 0.31006,-0.12402 z"
           style="fill:#ffffff;stroke-width:0.26458001"
           id="path397"
           inkscape:connector-curvature="0" />
        <path
           d="m 154.37,110.84 h 1.3333 v -5.1211 h -1.3126 q -0.18086,0 -0.31005,-0.12402 -0.12403,-0.12919 -0.12403,-0.31006 0,-0.18087 0.12403,-0.30489 0.12919,-0.12919 0.31005,-0.12919 h 2.1808 v 5.9893 h 0.86816 v -1.8087 q 0,-0.1757 0.12403,-0.30489 0.12919,-0.12919 0.31006,-0.12919 0.18086,0 0.30489,0.12919 0.12919,0.12402 0.12919,0.30489 v 2.2428 q 0,0.18087 -0.12919,0.31006 -0.12403,0.12402 -0.30489,0.12402 h -3.5037 q -0.18086,0 -0.31006,-0.12919 -0.12402,-0.13436 -0.12402,-0.31523 0,-0.1757 0.12402,-0.29972 0.1292,-0.12402 0.31006,-0.12402 z"
           style="fill:#ffffff;stroke-width:0.26458001"
           id="path399"
           inkscape:connector-curvature="0" />
        <path
           d="m 160.76,110.84 h 1.3332 v -5.1211 h -1.3126 q -0.18087,0 -0.31006,-0.12402 -0.12402,-0.12919 -0.12402,-0.31006 0,-0.18087 0.12402,-0.30489 0.12919,-0.12919 0.31006,-0.12919 h 2.1808 v 5.9893 h 0.86816 v -1.8087 q 0,-0.1757 0.12402,-0.30489 0.1292,-0.12919 0.31006,-0.12919 0.18087,0 0.30489,0.12919 0.12919,0.12402 0.12919,0.30489 v 2.2428 q 0,0.18087 -0.12919,0.31006 -0.12402,0.12402 -0.30489,0.12402 h -3.5037 q -0.18087,0 -0.31006,-0.12919 -0.12402,-0.13436 -0.12402,-0.31523 0,-0.1757 0.12402,-0.29972 0.12919,-0.12402 0.31006,-0.12402 z"
           style="fill:#ffffff;stroke-width:0.26458001"
           id="path401"
           inkscape:connector-curvature="0" />
        <path
           d="m 166.72,110.88 v -5.1935 q 0,-0.34106 0.24805,-0.58911 0.24804,-0.24805 0.58911,-0.24805 h 2.7078 q 0.3359,0 0.57878,0.24805 0.24805,0.24805 0.24805,0.58911 v 5.1935 q 0,0.34623 -0.24805,0.59428 -0.24288,0.24288 -0.58911,0.24288 h -2.6975 q -0.3514,0 -0.59428,-0.24288 -0.24288,-0.24805 -0.24288,-0.59428 z m 3.514,-0.031 v -5.1211 h -2.6458 v 5.1211 z"
           style="fill:#ffffff;stroke-width:0.26458001"
           id="path403"
           inkscape:connector-curvature="0" />
        <path
           d="m 173.53,110.84 h 1.3333 v -5.1211 h -1.3126 q -0.18087,0 -0.31006,-0.12402 -0.12403,-0.12919 -0.12403,-0.31006 0,-0.18087 0.12403,-0.30489 0.12919,-0.12919 0.31006,-0.12919 h 2.1807 v 5.9893 h 0.86816 v -1.8087 q 0,-0.1757 0.12403,-0.30489 0.12919,-0.12919 0.31006,-0.12919 0.18086,0 0.30489,0.12919 0.12919,0.12402 0.12919,0.30489 v 2.2428 q 0,0.18087 -0.12919,0.31006 -0.12403,0.12402 -0.30489,0.12402 h -3.5037 q -0.18086,0 -0.31005,-0.12919 -0.12403,-0.13436 -0.12403,-0.31523 0,-0.1757 0.12403,-0.29972 0.12919,-0.12402 0.31005,-0.12402 z"
           style="fill:#ffffff;stroke-width:0.26458001"
           id="path405"
           inkscape:connector-curvature="0" />
      </g>
      <g
         transform="matrix(0.26458,0,0,0.26458,-133.26,-0.041596)"
         style="fill:#ffffff"
         aria-label="10101001"
         id="g425">
        <path
           d="m 990.57,380.61 h 5.0391 v -19.356 h -4.9609 q -0.68359,0 -1.1719,-0.46875 -0.46875,-0.48828 -0.46875,-1.1719 0,-0.6836 0.46875,-1.1524 0.48828,-0.48828 1.1719,-0.48828 h 8.2422 v 22.637 h 3.2813 v -6.8359 q 0,-0.66406 0.4687,-1.1523 0.4883,-0.48828 1.1719,-0.48828 0.6836,0 1.1523,0.48828 0.4883,0.46875 0.4883,1.1523 v 8.4766 q 0,0.68359 -0.4883,1.1719 -0.4687,0.46875 -1.1523,0.46875 h -13.242 q -0.6836,0 -1.1719,-0.48828 -0.46875,-0.50781 -0.46875,-1.1914 0,-0.66406 0.46875,-1.1328 0.48828,-0.46875 1.1719,-0.46875 z"
           style="fill:#ffffff"
           id="path409"
           inkscape:connector-curvature="0" />
        <path
           d="m 1013.1,380.73 v -19.629 q 0,-1.2891 0.9375,-2.2266 0.9375,-0.9375 2.2265,-0.9375 h 10.234 q 1.2695,0 2.1875,0.9375 0.9375,0.9375 0.9375,2.2266 v 19.629 q 0,1.3086 -0.9375,2.2461 -0.918,0.91797 -2.2266,0.91797 h -10.195 q -1.3281,0 -2.2461,-0.91797 -0.9179,-0.9375 -0.9179,-2.2461 z m 13.281,-0.11719 v -19.356 h -10 v 19.356 z"
           style="fill:#ffffff"
           id="path411"
           inkscape:connector-curvature="0" />
        <path
           d="m 1038.8,380.61 h 5.039 v -19.356 h -4.9609 q -0.6836,0 -1.1719,-0.46875 -0.4687,-0.48828 -0.4687,-1.1719 0,-0.6836 0.4687,-1.1524 0.4883,-0.48828 1.1719,-0.48828 h 8.2422 v 22.637 h 3.2812 v -6.8359 q 0,-0.66406 0.4688,-1.1523 0.4883,-0.48828 1.1718,-0.48828 0.6836,0 1.1524,0.48828 0.4883,0.46875 0.4883,1.1523 v 8.4766 q 0,0.68359 -0.4883,1.1719 -0.4688,0.46875 -1.1524,0.46875 h -13.242 q -0.6836,0 -1.1719,-0.48828 -0.4688,-0.50781 -0.4688,-1.1914 0,-0.66406 0.4688,-1.1328 0.4883,-0.46875 1.1719,-0.46875 z"
           style="fill:#ffffff"
           id="path413"
           inkscape:connector-curvature="0" />
        <path
           d="m 1061.4,380.73 v -19.629 q 0,-1.2891 0.9375,-2.2266 0.9375,-0.9375 2.2266,-0.9375 h 10.234 q 1.2695,0 2.1875,0.9375 0.9375,0.9375 0.9375,2.2266 v 19.629 q 0,1.3086 -0.9375,2.2461 -0.918,0.91797 -2.2266,0.91797 h -10.195 q -1.3281,0 -2.2461,-0.91797 -0.918,-0.9375 -0.918,-2.2461 z m 13.281,-0.11719 v -19.356 h -10 v 19.356 z"
           style="fill:#ffffff"
           id="path415"
           inkscape:connector-curvature="0" />
        <path
           d="m 1087.1,380.61 h 5.0391 v -19.356 h -4.961 q -0.6836,0 -1.1718,-0.46875 -0.4688,-0.48828 -0.4688,-1.1719 0,-0.6836 0.4688,-1.1524 0.4882,-0.48828 1.1718,-0.48828 h 8.2422 v 22.637 h 3.2813 v -6.8359 q 0,-0.66406 0.4687,-1.1523 0.4883,-0.48828 1.1719,-0.48828 0.6836,0 1.1523,0.48828 0.4883,0.46875 0.4883,1.1523 v 8.4766 q 0,0.68359 -0.4883,1.1719 -0.4687,0.46875 -1.1523,0.46875 h -13.242 q -0.6836,0 -1.1719,-0.48828 -0.4687,-0.50781 -0.4687,-1.1914 0,-0.66406 0.4687,-1.1328 0.4883,-0.46875 1.1719,-0.46875 z"
           style="fill:#ffffff"
           id="path417"
           inkscape:connector-curvature="0" />
        <path
           d="m 1109.7,380.73 v -19.629 q 0,-1.2891 0.9375,-2.2266 0.9375,-0.9375 2.2265,-0.9375 h 10.234 q 1.2695,0 2.1875,0.9375 0.9375,0.9375 0.9375,2.2266 v 19.629 q 0,1.3086 -0.9375,2.2461 -0.918,0.91797 -2.2266,0.91797 h -10.195 q -1.3281,0 -2.2461,-0.91797 -0.9179,-0.9375 -0.9179,-2.2461 z m 13.281,-0.11719 v -19.356 h -10 v 19.356 z"
           style="fill:#ffffff"
           id="path419"
           inkscape:connector-curvature="0" />
        <path
           d="m 1133.8,380.73 v -19.629 q 0,-1.2891 0.9375,-2.2266 0.9375,-0.9375 2.2266,-0.9375 h 10.234 q 1.2696,0 2.1875,0.9375 0.9375,0.9375 0.9375,2.2266 v 19.629 q 0,1.3086 -0.9375,2.2461 -0.9179,0.91797 -2.2265,0.91797 h -10.195 q -1.3282,0 -2.2461,-0.91797 -0.918,-0.9375 -0.918,-2.2461 z m 13.281,-0.11719 v -19.356 h -10 v 19.356 z"
           style="fill:#ffffff"
           id="path421"
           inkscape:connector-curvature="0" />
        <path
           d="m 1159.6,380.61 h 5.039 v -19.356 h -4.9609 q -0.6836,0 -1.1719,-0.46875 -0.4687,-0.48828 -0.4687,-1.1719 0,-0.6836 0.4687,-1.1524 0.4883,-0.48828 1.1719,-0.48828 h 8.2422 v 22.637 h 3.2812 v -6.8359 q 0,-0.66406 0.4688,-1.1523 0.4883,-0.48828 1.1719,-0.48828 0.6836,0 1.1523,0.48828 0.4883,0.46875 0.4883,1.1523 v 8.4766 q 0,0.68359 -0.4883,1.1719 -0.4687,0.46875 -1.1523,0.46875 h -13.242 q -0.6836,0 -1.1719,-0.48828 -0.4687,-0.50781 -0.4687,-1.1914 0,-0.66406 0.4687,-1.1328 0.4883,-0.46875 1.1719,-0.46875 z"
           style="fill:#ffffff"
           id="path423"
           inkscape:connector-curvature="0" />
      </g>
    </g>
    <g
       transform="matrix(0.069068,0,0,0.069068,338.12,97.206)"
       style="fill:#ffffff"
       id="g439">
      <g
         style="fill:#ffffff"
         id="g437">
        <g
           style="fill:#ffffff"
           id="g435">
          <path
             d="m 325.76,70.513 -17.706,-4.854 c -2.279,-0.76 -4.524,-0.521 -6.707,0.715 -2.19,1.237 -3.669,3.094 -4.429,5.568 l -106.49,368.59 c -0.76,2.475 -0.522,4.809 0.715,6.995 1.237,2.19 3.09,3.665 5.568,4.425 l 17.701,4.856 c 2.284,0.766 4.521,0.526 6.71,-0.712 2.19,-1.243 3.666,-3.094 4.425,-5.564 l 106.5,-368.59 c 0.759,-2.474 0.523,-4.808 -0.716,-6.999 -1.238,-2.19 -3.089,-3.665 -5.564,-4.424 z"
             style="fill:#ffffff"
             id="path429"
             inkscape:connector-curvature="0" />
          <path
             d="m 166.17,142.46 c 0,-2.474 -0.953,-4.665 -2.856,-6.567 l -14.277,-14.276 c -1.903,-1.903 -4.093,-2.857 -6.567,-2.857 -2.474,0 -4.665,0.955 -6.567,2.857 L 2.863,254.657 c -1.906,1.903 -2.856,4.093 -2.856,6.567 0,2.474 0.953,4.664 2.856,6.566 l 133.04,133.04 c 1.902,1.906 4.089,2.854 6.567,2.854 2.478,0 4.665,-0.951 6.567,-2.854 l 14.277,-14.268 c 1.903,-1.902 2.856,-4.093 2.856,-6.57 0,-2.471 -0.953,-4.661 -2.856,-6.563 l -112.2,-112.21 112.2,-112.2 c 1.906,-1.902 2.856,-4.093 2.856,-6.567 z"
             style="fill:#ffffff"
             id="path431"
             inkscape:connector-curvature="0" />
          <path
             d="M 519.61,254.66 386.56,121.62 c -1.902,-1.902 -4.093,-2.857 -6.563,-2.857 -2.478,0 -4.661,0.955 -6.57,2.857 l -14.271,14.275 c -1.902,1.903 -2.851,4.09 -2.851,6.567 0,2.477 0.948,4.665 2.851,6.567 l 112.21,112.2 -112.21,112.21 c -1.902,1.902 -2.851,4.093 -2.851,6.563 0,2.478 0.948,4.668 2.851,6.57 l 14.271,14.268 c 1.909,1.906 4.093,2.854 6.57,2.854 2.471,0 4.661,-0.951 6.563,-2.854 L 519.61,267.8 c 1.903,-1.902 2.854,-4.096 2.854,-6.57 0,-2.475 -0.951,-4.665 -2.854,-6.567 z"
             style="fill:#ffffff"
             id="path433"
             inkscape:connector-curvature="0" />
        </g>
      </g>
    </g>
    <g
       transform="translate(-91.385,-49.812)"
       id="g447">
      <circle
         cx="469.48999"
         cy="121.3"
         r="15.027"
         style="fill:#96c5f9;stroke:#ffffff;stroke-width:2.63809991;stroke-linecap:round;stroke-linejoin:round"
         id="circle441" />
      <path
         d="m 459.05,163.04 c 0,0 -0.61916,-26.697 10.453,-26.697 9.2329,0 10.114,16.148 10.114,26.989 -11.393,6.5777 -20.567,-0.2915 -20.567,-0.2915 z"
         style="fill:#96c5f9;stroke:#ffffff;stroke-width:2.63809991;stroke-linecap:round;stroke-linejoin:round"
         id="path443"
         inkscape:connector-curvature="0" />
      <path
         d="m 465.16,138.75 2.8204,4.9797 -2.6,5.773 2.0272,10.224 3.1729,-10.444 -2.6001,-5.6408 6.4781,-5.1119 -5.9933,-2.2034 z"
         style="fill:#865fc5;stroke:#ffffff;stroke-width:1.58290005;stroke-linecap:round;stroke-linejoin:round"
         id="path445"
         inkscape:connector-curvature="0" />
    </g>
    <g
       transform="matrix(0.82088,0,0,0.82088,-34.979,30.331)"
       id="g455">
      <circle
         cx="207.42999"
         cy="242.75999"
         r="11.392"
         style="fill:#96c5f9;stroke:#ffffff;stroke-width:2;stroke-linecap:round;stroke-linejoin:round"
         id="circle449" />
      <path
         d="m 199.91,274.28 c 0,0 -0.46939,-20.239 7.9246,-20.239 6.9995,0 7.6673,12.242 7.6673,20.46 -8.637,4.9866 -15.592,-0.22099 -15.592,-0.22099 z"
         style="fill:#96c5f9;stroke:#ffffff;stroke-width:2;stroke-linecap:round;stroke-linejoin:round"
         id="path451"
         inkscape:connector-curvature="0" />
      <path
         d="m 203.49,256.81 c 0,0 3.0736,2.1382 9.3544,0.26726 l 1.0023,2.5725 c 0,0 -6.4479,3.0736 -12.06,-0.13363 z"
         style="fill:#2c5fb2;stroke:#ffffff;stroke-width:1.5"
         id="path453"
         inkscape:connector-curvature="0" />
    </g>
    <g
       transform="matrix(0.82088,0,0,0.82088,-37.26,30.548)"
       id="g463">
      <circle
         cx="169.60001"
         cy="242.5"
         r="11.392"
         style="fill:#96c5f9;stroke:#ffffff;stroke-width:2;stroke-linecap:round;stroke-linejoin:round"
         id="circle457" />
      <path
         d="m 161.01,274.02 c 0,0 -0.46939,-20.239 7.9246,-20.239 6.9995,0 7.6673,12.242 7.6673,20.46 -8.637,4.9866 -15.592,-0.22099 -15.592,-0.22099 z"
         style="fill:#96c5f9;stroke:#ffffff;stroke-width:2;stroke-linecap:round;stroke-linejoin:round"
         id="path459"
         inkscape:connector-curvature="0" />
      <path
         d="m 172.4,255.86 -2.1381,3.7752 1.9711,4.3765 -1.5368,7.7508 -2.4054,-7.9179 1.9711,-4.2763 -4.9111,-3.8754 4.5436,-1.6704 z"
         style="fill:#1a3b71;stroke:#ffffff;stroke-width:1.20000005;stroke-linecap:round;stroke-linejoin:round"
         id="path461"
         inkscape:connector-curvature="0" />
    </g>
    <g
       transform="matrix(-0.82088,0,0,0.82088,350.08,171.66)"
       id="g473">
      <circle
         cx="221.03"
         cy="71.652"
         r="11.392"
         style="fill:#96c5f9;stroke:#ffffff;stroke-width:2;stroke-linecap:round;stroke-linejoin:round"
         id="circle465" />
      <path
         d="m 212.45,102.25 c 0,0 -0.46939,-19.314 7.9246,-19.314 6.9995,0 7.6673,11.682 7.6673,19.525 -8.637,4.7587 -15.592,-0.21089 -15.592,-0.21089 z"
         style="fill:#96c5f9;stroke:#ffffff;stroke-width:1.95379996;stroke-linecap:round;stroke-linejoin:round"
         id="path467"
         inkscape:connector-curvature="0" />
      <path
         d="m 216.67,85.433 4.1105,1.7954 4.2758,-2.0789 -4.583,-2.2206 z"
         style="fill:#1a3b71;stroke:#ffffff;stroke-width:1.5;stroke-linecap:round;stroke-linejoin:round"
         id="path469"
         inkscape:connector-curvature="0" />
      <path
         d="m 220.78,87.228 c 0,0 1.5669,7.7853 0.22036,17.14"
         style="fill:none;stroke:#ffffff"
         id="path471"
         inkscape:connector-curvature="0" />
    </g>
    <g
       transform="matrix(0.097836,0,0,0.097836,84.716,206.8)"
       style="display:inline"
       id="g483">
      <path
         d="M 0,0 H 256 V 256 H 0 Z"
         style="fill:none"
         id="path475"
         inkscape:connector-curvature="0" />
      <path
         d="M 38,21.99 C 58.33,7.32 87.08,6.06 108.73,18.61 c 24.41,-4.23 50.22,-0.21 72,11.66 24.31,13.06 43.4,35.49 52.29,61.63 6.11,17.69 7.53,36.92 4.35,55.35 7.82,13.75 10.53,30.3 7.36,45.81 -3.35,17.11 -13.9,32.62 -28.49,42.15 -20.2,13.58 -47.95,14.35 -68.99,2.17 -23.43,4.03 -48.14,0.54 -69.34,-10.28 C 53.27,214.72 33.62,192.82 24.01,166.97 17.05,148.5 15.3,128.18 18.61,108.74 10.62,94.75 8.03,77.84 11.44,62.1 14.82,46.02 24.55,31.41 38,21.99 Z"
         style="fill:#ffffff"
         id="path477"
         inkscape:connector-curvature="0" />
      <path
         d="m 49,34.98 c 12.35,-8.29 28.55,-10.36 42.62,-5.57 5,1.59 9.5,4.34 14.02,6.93 17.64,-3.85 36.36,-3.29 53.43,2.82 27.17,9.39 49.35,31.92 58.27,59.25 5.66,16.66 6.04,34.8 2.31,51.93 4.4,7.21 8.19,15.01 9.08,23.51 2.18,16.01 -4.34,32.79 -16.61,43.27 -11.98,10.56 -29.28,14.58 -44.7,10.37 -6.15,-1.49 -11.66,-4.68 -17.08,-7.83 -18.58,4.07 -38.36,3.17 -56.13,-3.82 C 67.98,205.85 46.85,183.53 38.38,156.77 32.95,140.32 32.68,122.5 36.35,105.64 30.68,96.8 26.67,86.62 26.87,75.97 26.72,59.73 35.4,43.82 49,34.98 Z"
         style="fill:#58b1dd"
         id="path479"
         inkscape:connector-curvature="0" />
      <path
         d="m 113.41,60.77 c 15.99,-2.42 32.84,0.03 47.11,7.77 6.24,3.46 12.28,8.14 15.18,14.86 1.89,4.42 2.1,10.19 -1.39,13.89 -3.78,3.87 -9.95,5.06 -15.02,3.43 -5.87,-2.46 -8.79,-8.61 -13.77,-12.27 -6.26,-5.16 -14.69,-6.55 -22.58,-6.41 -5.77,0.25 -11.95,1.56 -16.16,5.8 -3.89,4.15 -5.33,11.26 -1.54,15.93 3.58,4.13 9.11,5.67 14.18,7.08 9.67,2.42 19.45,4.37 29.16,6.66 10.1,2.31 20.3,6.73 26.97,14.96 11.5,14.9 8.91,38.53 -5.39,50.73 -11.44,10.13 -27.35,12.93 -42.17,13.02 -15.82,-0.23 -32.73,-3.47 -44.89,-14.29 -6.1,-5.5 -11.23,-13.8 -9.39,-22.29 2.01,-8.44 13.6,-11.64 20.17,-6.45 5.02,4.03 7.74,10.16 12.58,14.37 5.79,5.31 13.86,7.42 21.58,7.23 7.57,0.2 15.61,-2.12 20.8,-7.88 3.53,-3.89 5.4,-9.81 3.11,-14.79 -1.88,-4.68 -6.71,-7.23 -11.33,-8.49 -8.52,-2.23 -17.1,-4.26 -25.62,-6.51 -9.36,-2.29 -19.09,-4.38 -27.14,-9.96 -6.28,-4.17 -11.04,-10.68 -12.57,-18.1 -2.57,-11.64 -0.73,-25.07 7.73,-33.96 7.74,-8.61 19.22,-12.61 30.39,-14.33 z"
         style="fill:#ffffff"
         id="path481"
         inkscape:connector-curvature="0" />
    </g>
    <g
       transform="matrix(0.17125,0,0,0.17125,26.953,206.42)"
       style="display:inline"
       id="g493">
      <g
         transform="translate(13.065,-7.1263)"
         id="g491">
        <rect
           class="st0"
           transform="matrix(0.9482,-0.3176,0.3176,0.9482,-36.02,50.637)"
           x="128.5"
           y="127.3"
           width="17.6"
           height="17"
           style="fill:#ffffff"
           id="rect485" />
        <rect
           class="st0"
           transform="matrix(0.9482,-0.3176,0.3176,0.9482,-36.02,50.637)"
           x="128.5"
           y="127.3"
           width="17.6"
           height="17"
           style="fill:#ffffff"
           id="rect487" />
        <path
           class="st0"
           d="m 194.6,118.5 c -12.9,-43 -31.5,-53 -74.5,-40.1 -43,12.9 -53,31.5 -40.1,74.5 12.9,43 31.5,53 74.5,40.1 43,-12.9 53,-31.5 40.1,-74.5 z m -21.7,27.9 -8.1,2.7 2.8,8.4 c 1.1,3.4 -0.7,7.1 -4.1,8.2 -0.7,0.2 -1.5,0.4 -2.2,0.3 -2.6,-0.1 -5.1,-1.8 -6,-4.4 l -2.8,-8.4 -16.7,5.6 2.8,8.4 c 1.1,3.4 -0.7,7.1 -4.1,8.2 -0.7,0.2 -1.5,0.4 -2.2,0.3 -2.6,-0.1 -5.1,-1.8 -6,-4.4 l -2.8,-8.4 -8.1,2.7 c -0.7,0.2 -1.5,0.4 -2.2,0.3 -2.6,-0.1 -5.1,-1.8 -6,-4.4 -1.1,-3.4 0.7,-7.1 4.1,-8.2 l 8.1,-2.7 -5.4,-16.1 -8.1,2.7 c -0.7,0.2 -1.5,0.4 -2.2,0.3 -2.6,-0.1 -5.1,-1.8 -6,-4.4 -1.1,-3.4 0.7,-7.1 4.1,-8.2 l 8.1,-2.7 -2.8,-8.4 c -1.1,-3.4 0.7,-7.1 4.1,-8.2 3.4,-1.1 7.1,0.7 8.2,4.1 l 2.8,8.4 16.7,-5.6 -2.8,-8.4 c -1.1,-3.4 0.7,-7.1 4.1,-8.2 3.4,-1.1 7.1,0.7 8.2,4.1 l 2.8,8.4 8.1,-2.7 c 3.4,-1.1 7.1,0.7 8.2,4.1 1.1,3.4 -0.7,7.1 -4.1,8.2 l -8.1,2.7 5.4,16.1 8.1,-2.7 c 3.4,-1.1 7.1,0.7 8.2,4.1 1.1,3.4 -0.7,7.1 -4.1,8.2 z"
           style="fill:#ffffff"
           id="path489"
           inkscape:connector-curvature="0" />
      </g>
    </g>
    <g
       transform="matrix(0.10015,0,0,0.10015,133.36,216.6)"
       style="display:inline"
       id="g499">
      <path
         d="m 41.255,185.52 v 40.2 L 78.844,204.35 C 89.322,207.37 100.46,209 112,209 173.86,209 224,162.21 224,104.5 224,46.786 173.86,0 112,0 50.144,0 0,46.786 0,104.5 c 0,32.68 16.078,61.86 41.255,81.02 z"
         style="fill:#ffffff"
         id="path495"
         inkscape:connector-curvature="0" />
      <path
         d="m 100.04,75.878 -60.401,63.952 54.97,-30.16 28.721,30.16 60.06,-63.952 -54.36,29.632 z"
         style="fill:#58b1dd"
         id="path497"
         inkscape:connector-curvature="0" />
    </g>
    <g
       transform="matrix(0.50639,0,0,0.50639,44.48,230.13)"
       style="display:inline;stroke-width:2.27710009"
       id="g505">
      <rect
         x="235.48"
         y="34.963001"
         width="41.199001"
         height="24.757"
         style="fill:#58b1dd;stroke:#ffffff;stroke-width:2.27710009;stroke-linecap:round"
         id="rect501" />
      <path
         d="M 276.68,34.963 255.891,45.357 235.48,34.963"
         style="fill:none;stroke:#ffffff;stroke-width:2.27710009"
         id="path503"
         inkscape:connector-curvature="0" />
    </g>
    <g
       transform="matrix(0.543,0,0,0.543,-215.62,155.55)"
       style="display:inline;fill:#58b1dd;stroke-width:1.72179997"
       id="g523">
      <rect
         x="415.39999"
         y="165.17999"
         width="37.609001"
         height="30.711"
         style="fill:#58b1dd;stroke:#ffffff;stroke-width:1.72179997;stroke-linecap:round"
         id="rect507" />
      <rect
         x="448.91"
         y="165.17999"
         width="4.0918999"
         height="4.0918999"
         style="fill:#58b1dd;stroke:#ffffff;stroke-width:1.72179997;stroke-linecap:round"
         id="rect509" />
      <rect
         x="444.82001"
         y="165.17999"
         width="4.0918999"
         height="4.0918999"
         style="fill:#58b1dd;stroke:#ffffff;stroke-width:1.72179997;stroke-linecap:round"
         id="rect511" />
      <rect
         x="440.73001"
         y="165.17999"
         width="4.0918999"
         height="4.0918999"
         style="fill:#58b1dd;stroke:#ffffff;stroke-width:1.72179997;stroke-linecap:round"
         id="rect513" />
      <rect
         x="415.39999"
         y="165.17999"
         width="25.333"
         height="4.0918999"
         style="fill:#58b1dd;stroke:#ffffff;stroke-width:1.72179997;stroke-linecap:round"
         id="rect515" />
      <circle
         cx="424.20999"
         cy="182.86"
         r="2.1882999"
         style="fill:#58b1dd;stroke:#ffffff;stroke-width:1.72179997;stroke-linecap:round"
         id="circle517" />
      <circle
         cx="434.19"
         cy="182.86"
         r="2.1882999"
         style="fill:#58b1dd;stroke:#ffffff;stroke-width:1.72179997;stroke-linecap:round"
         id="circle519" />
      <circle
         cx="444.17001"
         cy="182.86"
         r="2.1882999"
         style="fill:#58b1dd;stroke:#ffffff;stroke-width:1.72179997;stroke-linecap:round"
         id="circle521" />
    </g>
  </g>
  <g
     transform="matrix(0.053997,0,0,0.053997,236.38049,28.008009)"
     style="fill:none"
     id="g562">
    <g
       id="logo-square" />
  </g>
  <style
     id="style1377"
     type="text/css">
	.st0{fill:#59B4D9;}
	.st1{fill:#7FBA00;}
	.st2{fill:#0072C6;}
</style>
  <style
     id="style2268"
     type="text/css">
	.st0{fill:#59B4D9;}
	.st1{fill:#7FBA00;}
	.st2{fill:#0072C6;}
</style>
  <g
     inkscape:groupmode="layer"
     id="layer1"
     inkscape:label="Layer 1"
     transform="translate(6.852661e-6,0.61817932)" />
  <g
     inkscape:groupmode="layer"
     id="layer2"
     inkscape:label="Layer 2"
     style="display:inline"
     transform="translate(6.852661e-6,0.61817932)">
    <g
       style="display:inline"
       id="g17861"
       transform="translate(4.5111632,-42.648606)"
       inkscape:export-xdpi="94.016045"
       inkscape:export-ydpi="94.016045">
      <circle
         r="55.905972"
         cy="165.08295"
         cx="129.15485"
         id="path973-8"
         style="display:inline;opacity:1;fill:#68217a;fill-opacity:1;stroke:#000000;stroke-width:2.64583325;stroke-linecap:round;stroke-linejoin:round;stroke-miterlimit:4;stroke-dasharray:none;stroke-dashoffset:0;stroke-opacity:0.9921568;paint-order:fill markers stroke" />
      <path
         sodipodi:nodetypes="ccccccccccccccccccccccccccccccccccccccccccccccccccccccccccccccccccccccccccccccc"
         inkscape:connector-curvature="0"
         id="path973"
         d="m 129.23494,109.17704 c -3.65848,0.003 -7.30779,0.36578 -10.89546,1.08211 -0.50151,3.62982 -1.0613,7.3896 -1.48828,7.47499 -0.77272,0.15455 -5.56349,1.2361 -5.56349,1.2361 l 1.39062,-4.63641 -0.12609,-2.60087 c -23.332503,7.29484 -39.219443,28.90345 -39.223453,53.34972 0.0158,1.45664 0.0886,2.91211 0.21808,4.36306 l 7.75921,2.84272 6.18154,5.40897 -1.39061,6.8001 -2.78175,7.10861 0.0956,5.46116 c 10.4498,14.98078 27.558763,23.91217 45.824083,23.92154 29.60877,-0.0364 54.05442,-23.15161 55.74596,-52.71203 l -7.8574,-6.4978 -4.01783,-10.04538 -6.95462,0.1545 0.46353,5.56401 -11.74554,5.25446 -7.57266,-10.3544 -1.54513,0.77255 8.49974,12.36359 7.8817,-1.23661 -0.30902,3.09128 -11.90006,6.49057 0.15451,9.73636 -13.75421,16.22743 -7.41815,1.2361 -7.72718,-6.64507 -1.85466,-6.95462 2.16369,-4.17287 0.30902,-9.42733 -5.09994,-3.07956 -8.03621,0.45233 -8.11145,-3.49386 -4.097623,-11.80599 4.790923,-8.19071 9.58185,-6.64559 8.80876,2.16369 2.90531,3.34386 3.27674,1.60157 4.79093,-1.2361 9.11779,-1.39113 2.16369,3.39979 1.85468,-1.54512 1.08158,-2.93626 -4.01785,-3.24579 -0.61857,-6.02702 0.77308,2.3182 6.7996,2.16369 2.3182,-4.79092 -10.1999,-0.15451 -2.62723,4.63589 -4.63641,1.39112 -4.6359,-4.79091 0.26688,2.16369 c 0,0 -1.50326,2.00902 -0.11236,2.78174 1.3909,0.77272 -2.00918,0.30903 -2.00918,0.30903 l -2.35583,-2.582 0.554,-3.19244 -2.37104,-1.95274 h -7.26364 l -4.01785,6.33657 -6.95461,-0.77308 0.15451,-7.26365 6.18154,-0.92707 3.86385,-7.10913 9.42733,-0.15452 3.09076,-1.39061 3.76931,-5.9664 c -0.27085,-0.0156 -2.47271,-6.25905 -3.28558,-6.29987 z m 28.26134,75.62951 2.78175,0.15452 -0.61806,4.32686 -6.95462,3.70934 -1.54512,-2.00918 z"
         style="display:inline;opacity:1;fill:#59b4d9;fill-opacity:1;stroke:#000000;stroke-width:2.64583325;stroke-linecap:round;stroke-linejoin:round;stroke-miterlimit:4;stroke-dasharray:none;stroke-dashoffset:0;stroke-opacity:0.9921568;paint-order:fill markers stroke" />
      <path
         style="display:inline;opacity:1;fill:none;fill-opacity:1;stroke:#59b4d9;stroke-width:4.23333332;stroke-linecap:butt;stroke-linejoin:round;stroke-miterlimit:4;stroke-dasharray:none;stroke-dashoffset:0;stroke-opacity:1;paint-order:fill markers stroke"
         d="m 128.088,87.31196 v 9.118123 l 5.68377,21.212117 v 5.06044"
         id="path1637-6"
         inkscape:connector-curvature="0" />
      <rect
         style="opacity:1;fill:#ffffff;fill-opacity:1;stroke:#59b4d9;stroke-width:1.5875;stroke-linecap:square;stroke-linejoin:round;stroke-miterlimit:4;stroke-dasharray:none;stroke-dashoffset:0;stroke-opacity:1;paint-order:fill markers stroke"
         id="rect1620"
         width="18.390795"
         height="18.390795"
         x="118.96988"
         y="72.939323" />
      <rect
         style="display:inline;opacity:1;fill:#ffffff;fill-opacity:1;stroke:#59b4d9;stroke-width:1.5875;stroke-linecap:square;stroke-linejoin:round;stroke-miterlimit:4;stroke-dasharray:none;stroke-dashoffset:0;stroke-opacity:1;paint-order:fill markers stroke"
         id="rect1620-4"
         width="9.7363033"
         height="9.7363033"
         x="128.62891"
         y="120.61629" />
      <path
         style="opacity:1;fill:none;fill-opacity:1;stroke:#ffffff;stroke-width:1.05833328;stroke-linecap:square;stroke-linejoin:round;stroke-miterlimit:4;stroke-dasharray:none;stroke-dashoffset:0;stroke-opacity:1;paint-order:fill markers stroke"
         d="m 128.088,87.31196 v 9.118123 l 5.68377,21.212117 v 5.06044"
         id="path1637"
         inkscape:connector-curvature="0" />
    </g>
  </g>
  <g
     inkscape:groupmode="layer"
     id="layer3"
     inkscape:label="Layer 3"
     transform="translate(6.852661e-6,0.61817932)" />
  <g
     inkscape:groupmode="layer"
     id="layer5"
     inkscape:label="ring right"
     style="display:inline"
     transform="translate(6.852661e-6,0.61817932)" />
  <g
     inkscape:groupmode="layer"
     id="layer6"
     inkscape:label="ring left"
     style="display:inline"
     transform="translate(6.852661e-6,0.61817932)" />
  <g
     inkscape:groupmode="layer"
     id="layer4"
     inkscape:label="ring mid"
     style="display:inline"
     transform="translate(6.852661e-6,0.61817932)" />
  <style
     id="style1090"
     type="text/css">
	.st0{fill:#59B4D9;}
	.st1{fill:#7FBA00;}
	.st2{fill:#0072C6;}
</style>
</svg>
