<?xml version="1.0" encoding="UTF-8" standalone="no"?>
<!-- Created with Inkscape (http://www.inkscape.org/) -->

<svg
   xmlns:dc="http://purl.org/dc/elements/1.1/"
   xmlns:cc="http://creativecommons.org/ns#"
   xmlns:rdf="http://www.w3.org/1999/02/22-rdf-syntax-ns#"
   xmlns:svg="http://www.w3.org/2000/svg"
   xmlns="http://www.w3.org/2000/svg"
   xmlns:sodipodi="http://sodipodi.sourceforge.net/DTD/sodipodi-0.dtd"
   xmlns:inkscape="http://www.inkscape.org/namespaces/inkscape"
   width="61.208851mm"
   height="29.529472mm"
   viewBox="0 0 61.208851 29.529472"
   version="1.1"
   id="svg8"
   inkscape:version="0.92.2 (5c3e80d, 2017-08-06)"
   sodipodi:docname="devops.svg"
   inkscape:export-filename="C:\Users\user\OneDrive\Personal\01. MarczakIO\images\icons\devops.png"
   inkscape:export-xdpi="497.97"
   inkscape:export-ydpi="497.97">
  <defs
     id="defs2" />
  <sodipodi:namedview
     id="base"
     pagecolor="#ffffff"
     bordercolor="#666666"
     borderopacity="1.0"
     inkscape:pageopacity="0.0"
     inkscape:pageshadow="2"
     inkscape:zoom="0.35"
     inkscape:cx="400"
     inkscape:cy="560"
     inkscape:document-units="mm"
     inkscape:current-layer="layer1"
     showgrid="false"
     fit-margin-top="0"
     fit-margin-left="0"
     fit-margin-right="0"
     fit-margin-bottom="0" />
  <metadata
     id="metadata5">
    <rdf:RDF>
      <cc:Work
         rdf:about="">
        <dc:format>image/svg+xml</dc:format>
        <dc:type
           rdf:resource="http://purl.org/dc/dcmitype/StillImage" />
        <dc:title></dc:title>
      </cc:Work>
    </rdf:RDF>
  </metadata>
  <g
     inkscape:label="Layer 1"
     inkscape:groupmode="layer"
     id="layer1"
     transform="translate(-81.831698,-77.025787)">
    <path
       style="opacity:1;fill:#0377d1;fill-opacity:1;stroke:none;stroke-width:34.13590622;stroke-linecap:square;stroke-linejoin:miter;stroke-miterlimit:4;stroke-dasharray:none;stroke-dashoffset:0;stroke-opacity:1;paint-order:fill markers stroke"
       d="m 365.08984,291.12109 c -14.76919,-2.9e-4 -28.18805,5.74766 -38.16992,15.11524 l 1.37891,16.74805 16.78711,0.4082 c 5.39052,-4.587 12.37127,-7.36126 20.0039,-7.36133 7.35148,0.007 14.92342,3.37697 21.02149,8.20703 0.0299,-5.66892 -0.10742,-15.90234 -0.10742,-15.90234 l 15.91406,-1.82617 c -11.54368,-9.99521 -22.32002,-15.36607 -36.82813,-15.38868 z m 119.73243,0 c -11.52781,0.0241 -22.76526,3.61777 -32.16797,10.28711 l 0.0234,-0.0645 -0.17773,0.17578 c -3.6304,3.59057 -7.73658,6.48031 -11.89062,10.16797 l 15.64062,0.89844 1.24414,17.17187 c 7.00311,-7.23469 17.2927,-13.7238 27.32813,-13.72656 6.95773,7e-5 13.37863,2.30023 18.54296,6.18164 l 15.03711,-0.88086 0.88086,-18.28125 c -9.48998,-7.46468 -21.45027,-11.92949 -34.46093,-11.92969 z m 37.86523,14.82422 -1.21289,18.9961 -14.05273,0.92968 c 5.14214,5.51755 8.29289,12.91556 8.29296,21.05274 -8e-5,9.15947 -3.98995,17.3838 -10.32226,23.04101 l -0.89063,15.11328 17.9961,3.00586 c 11.13972,-10.20251 18.12728,-24.86379 18.12695,-41.16015 -2.4e-4,-16.20113 -6.91084,-30.78424 -17.9375,-40.97852 z m -117.43945,3.55274 -15.20313,1.61718 -0.66601,15.98633 c 1.16254,1.12755 2.25443,2.29987 3.23828,3.50977 4.24819,5.22426 9.46142,10.77125 12.31836,13.75 l 16.90429,-17.72852 -11.45507,-12.18164 c -1.74683,-1.74682 -3.45255,-3.39229 -5.13672,-4.95312 z m -81.94141,0.45312 c -8.71881,9.84561 -14.02127,22.78727 -14.02148,36.97266 -3.1e-4,15.22489 6.10285,29.01941 15.98828,39.08789 l 18.04687,-3.06836 -0.93164,-15.07422 c -5.0826,-5.50592 -8.19133,-12.86131 -8.1914,-20.94531 6e-5,-7.68191 2.81096,-14.70287 7.45117,-20.10742 l -16.88477,-0.67579 z m 113.7793,5.07813 c -5.10836,5.10091 -13.11914,13.86718 -13.11914,13.86718 l -16.875,17.69922 -16.15039,17.25586 16.09765,0.92383 1.25782,17.38281 16.96484,-17.60351 28.54883,-30.83789 -0.47071,0.7832 0.50391,-0.58008 -1.18359,-18.24023 z m 5.97851,34.20312 -15.63672,17.75586 7.83204,8.79883 0.64843,-14.17578 16.9961,-1.42969 c -4.21598,-4.28196 -8.13584,-8.89823 -9.83985,-10.94922 z m 13.62696,14.58008 -17.64649,1.35156 -0.43554,14.38086 c 12.02086,13.42055 28.19625,23.15618 46.21289,23.1836 12.85219,-2e-4 24.68137,-4.35521 34.11523,-11.65625 l -18.37891,-3.36524 0.75196,-14.66406 c -4.77216,3.01895 -10.42375,4.77338 -16.48828,4.77344 -9.07167,-0.0129 -16.75599,-5.5931 -23.91797,-10.5586 -1.31743,-0.91339 -2.7536,-2.12557 -4.21289,-3.44531 z m -68.9336,3.40039 c -6.36522,6.41892 -13.48869,10.58989 -22.66797,10.60352 -7.17154,-7e-5 -13.767,-2.45063 -19.00976,-6.55079 l 0.68945,14.92969 -17.88476,3.17774 c 9.74697,8.32129 22.38454,13.35574 36.20507,13.35547 14.93189,-0.0203 29.14145,-6.03275 39.54883,-16.53516 l -1.18945,-18.32227 z"
       transform="scale(0.26458333)"
       id="path826-5"
       inkscape:connector-curvature="0" />
    <path
       inkscape:connector-curvature="0"
       style="opacity:1;fill:#58b3d7;fill-opacity:1;stroke:none;stroke-width:9.03179169;stroke-linecap:square;stroke-linejoin:miter;stroke-miterlimit:4;stroke-dasharray:none;stroke-dashoffset:0;stroke-opacity:1;paint-order:fill markers stroke"
       d="m 128.27608,77.025802 c -3.05007,0.0064 -6.02331,0.957202 -8.51111,2.721798 l 0.006,-0.01707 -0.047,0.04651 c -0.96054,0.950005 -2.04697,1.714582 -3.14606,2.690275 l 4.13825,0.237713 0.32918,4.54339 c 1.8529,-1.914178 4.57536,-3.631089 7.23056,-3.631819 1.8409,1.9e-5 3.53977,0.608603 4.90616,1.635559 l 3.97856,-0.23306 0.23306,-4.836914 c -2.51089,-1.97503 -5.67539,-3.156344 -9.11779,-3.156397 z m 10.01851,3.922242 -0.32091,5.026051 -3.71812,0.245978 c 1.36052,1.459852 2.19416,3.417242 2.19418,5.570204 -2e-5,2.423443 -1.05568,4.599464 -2.7311,6.096267 l -0.23565,3.998726 4.76147,0.7953 c 2.94739,-2.699417 4.79618,-6.578548 4.79609,-10.890293 -6e-5,-4.286549 -1.82849,-8.144997 -4.74596,-10.842233 z m -22.64875,2.403472 c -1.35159,1.349616 -3.4711,3.669025 -3.4711,3.669025 l -4.46485,4.682918 -4.27312,4.565613 4.25917,0.24443 0.3328,4.599198 4.48861,-4.657591 7.55354,-8.159192 -0.12454,0.207222 0.13333,-0.15348 -0.31316,-4.826061 z m 5.18728,12.907222 -4.66897,0.3576 -0.11523,3.804932 c 3.18052,3.55085 7.46026,6.12674 12.22716,6.13399 3.40047,-5e-5 6.53028,-1.15231 9.02632,-3.08404 l -4.86275,-0.89039 0.19895,-3.879864 c -1.26263,0.798764 -2.75795,1.262957 -4.36252,1.262973 -2.40021,-0.0034 -4.43336,-1.479841 -6.3283,-2.79363 -0.34857,-0.241668 -0.72855,-0.56239 -1.11466,-0.911571 z"
       id="path826-5-7"
       sodipodi:nodetypes="cccccccccccccccccccccccccccccccccccccccccccc" />
  </g>
</svg>
