<?xml version="1.0" encoding="UTF-8" standalone="no"?>
<!-- Created with Inkscape (http://www.inkscape.org/) -->

<svg
   xmlns:dc="http://purl.org/dc/elements/1.1/"
   xmlns:cc="http://creativecommons.org/ns#"
   xmlns:rdf="http://www.w3.org/1999/02/22-rdf-syntax-ns#"
   xmlns:svg="http://www.w3.org/2000/svg"
   xmlns="http://www.w3.org/2000/svg"
   xmlns:sodipodi="http://sodipodi.sourceforge.net/DTD/sodipodi-0.dtd"
   xmlns:inkscape="http://www.inkscape.org/namespaces/inkscape"
   width="119.10126mm"
   height="80.686951mm"
   viewBox="0 0 119.10126 80.686951"
   version="1.1"
   id="svg8"
   inkscape:version="0.92.2 (5c3e80d, 2017-08-06)"
   sodipodi:docname="invisible.svg">
  <defs
     id="defs2" />
  <sodipodi:namedview
     id="base"
     pagecolor="#ffffff"
     bordercolor="#666666"
     borderopacity="1.0"
     inkscape:pageopacity="0.0"
     inkscape:pageshadow="2"
     inkscape:zoom="0.35"
     inkscape:cx="-1317.7839"
     inkscape:cy="-924.66359"
     inkscape:document-units="mm"
     inkscape:current-layer="layer1"
     showgrid="false"
     fit-margin-top="0"
     fit-margin-left="0"
     fit-margin-right="0"
     fit-margin-bottom="0"
     inkscape:window-width="2736"
     inkscape:window-height="1719"
     inkscape:window-x="-13"
     inkscape:window-y="2147"
     inkscape:window-maximized="1" />
  <metadata
     id="metadata5">
    <rdf:RDF>
      <cc:Work
         rdf:about="">
        <dc:format>image/svg+xml</dc:format>
        <dc:type
           rdf:resource="http://purl.org/dc/dcmitype/StillImage" />
        <dc:title></dc:title>
      </cc:Work>
    </rdf:RDF>
  </metadata>
  <g
     inkscape:label="Layer 1"
     inkscape:groupmode="layer"
     id="layer1"
     transform="translate(-266.26485,176.50419)">
    <path
       inkscape:connector-curvature="0"
       style="fill:#212138;fill-opacity:1;fill-rule:nonzero;stroke:none;stroke-width:5.18309879;stroke-linecap:round;stroke-linejoin:miter;stroke-miterlimit:4;stroke-dasharray:none;stroke-dashoffset:0;stroke-opacity:1;paint-order:fill markers stroke"
       d="m 325.81521,-160.74939 a 24.588796,24.588796 0 0 0 -24.58867,24.58868 24.588796,24.588796 0 0 0 1.86758,9.37359 l 7.36802,-5.86476 a 15.768903,15.768903 0 0 1 -0.41546,-3.50883 15.768903,15.768903 0 0 1 15.76853,-15.76907 15.768903,15.768903 0 0 1 6.86523,1.59474 l 7.35097,-5.85081 a 24.588796,24.588796 0 0 0 -14.2162,-4.56354 z m 22.72214,15.21509 -7.36854,5.86424 a 15.768903,15.768903 0 0 1 0.41548,3.50935 15.768903,15.768903 0 0 1 -15.76908,15.76906 15.768903,15.768903 0 0 1 -6.86469,-1.59473 l -7.35097,5.8508 a 24.588796,24.588796 0 0 0 14.21566,4.56354 24.588796,24.588796 0 0 0 24.5892,-24.58867 24.588796,24.588796 0 0 0 -1.86706,-9.37359 z"
       id="path837" />
    <path
       inkscape:connector-curvature="0"
       style="fill:#212138;fill-opacity:1;fill-rule:nonzero;stroke:none;stroke-width:2.05633807;stroke-linecap:round;stroke-linejoin:miter;stroke-miterlimit:4;stroke-dasharray:none;stroke-dashoffset:0;stroke-opacity:1;paint-order:fill markers stroke"
       d="m 325.81521,-145.91617 a 9.7553386,9.7553386 0 0 0 -9.70431,8.76897 l 10.91199,-8.68526 a 9.7553386,9.7553386 0 0 0 -1.20768,-0.0837 z m 9.70484,10.74198 -10.91148,8.68474 a 9.7553386,9.7553386 0 0 0 1.20664,0.0842 9.7553386,9.7553386 0 0 0 9.70484,-8.76897 z"
       id="path837-4-4" />
    <path
       inkscape:connector-curvature="0"
       style="fill:#212138;fill-opacity:1;stroke:#000000;stroke-width:0.26458332px;stroke-linecap:butt;stroke-linejoin:miter;stroke-opacity:1"
       d="m 325.91576,-174.09501 c -22.91837,-0.0501 -45.87002,12.54506 -59.50076,37.93567 5.1774,9.64418 11.70034,17.44031 19.05465,23.40064 l 5.45393,-4.34134 c -5.86498,-4.93716 -11.07233,-11.28752 -15.24455,-19.0593 11.50488,-21.43064 30.87725,-32.06153 50.22122,-32.01924 7.74106,0.0169 15.47649,1.74505 22.7025,5.1723 l 5.46582,-4.35064 c -8.91716,-4.4668 -18.53181,-6.71705 -28.15281,-6.73809 z m 40.23579,14.54278 -5.45238,4.33927 c 5.8832,4.94362 11.09599,11.29558 15.25282,19.05362 -15.98382,29.83116 -47.56619,38.900088 -72.93923,26.85882 l -5.46788,4.35168 c 30.26762,15.173468 68.46951,4.62621 87.67114,-31.2105 -5.15755,-9.62572 -11.68732,-17.42447 -19.06447,-23.39289 z"
       id="path870" />
    <path
       inkscape:connector-curvature="0"
       style="fill:#212138;fill-opacity:1;fill-rule:nonzero;stroke:none;stroke-width:2.11666656;stroke-linecap:round;stroke-linejoin:miter;stroke-miterlimit:4;stroke-dasharray:none;stroke-dashoffset:0;stroke-opacity:1;paint-order:fill markers stroke"
       d="m 276.37455,-101.19069 94.62681,-75.3135 4.25504,5.37346 -94.6268,75.313489 z"
       id="rect819" />
  </g>
</svg>
