<?xml version="1.0" encoding="UTF-8" standalone="no"?>
<!-- Created with Inkscape (http://www.inkscape.org/) -->

<svg
   xmlns:dc="http://purl.org/dc/elements/1.1/"
   xmlns:cc="http://creativecommons.org/ns#"
   xmlns:rdf="http://www.w3.org/1999/02/22-rdf-syntax-ns#"
   xmlns:svg="http://www.w3.org/2000/svg"
   xmlns="http://www.w3.org/2000/svg"
   xmlns:sodipodi="http://sodipodi.sourceforge.net/DTD/sodipodi-0.dtd"
   xmlns:inkscape="http://www.inkscape.org/namespaces/inkscape"
   width="63.875404mm"
   height="56.126637mm"
   viewBox="0 0 63.875404 56.126637"
   version="1.1"
   id="svg8"
   inkscape:version="0.92.2 (5c3e80d, 2017-08-06)"
   sodipodi:docname="key.svg">
  <defs
     id="defs2" />
  <sodipodi:namedview
     id="base"
     pagecolor="#ffffff"
     bordercolor="#666666"
     borderopacity="1.0"
     inkscape:pageopacity="0.0"
     inkscape:pageshadow="2"
     inkscape:zoom="0.35"
     inkscape:cx="400"
     inkscape:cy="560"
     inkscape:document-units="mm"
     inkscape:current-layer="g1376"
     showgrid="false"
     fit-margin-top="0"
     fit-margin-left="0"
     fit-margin-right="0"
     fit-margin-bottom="0" />
  <metadata
     id="metadata5">
    <rdf:RDF>
      <cc:Work
         rdf:about="">
        <dc:format>image/svg+xml</dc:format>
        <dc:type
           rdf:resource="http://purl.org/dc/dcmitype/StillImage" />
        <dc:title></dc:title>
      </cc:Work>
    </rdf:RDF>
  </metadata>
  <g
     inkscape:label="Layer 1"
     inkscape:groupmode="layer"
     id="layer1"
     transform="translate(-38.402447,-54.982555)">
    <g
       id="g1376"
       transform="rotate(0.07,43680.898,-181778.93)"
       style="display:inline;enable-background:new">
      <path
         inkscape:connector-curvature="0"
         id="path1187"
         d="m 290.363,130.56946 v 29.43079 l 2.83607,2.83606 h 1.87285 l 4.33435,-4.33435 v -3.47819 l -2.24742,-2.24744 v -1.76585 l 0.96319,-0.96319 v -1.60531 l -1.92638,-1.92638 v -1.92638 l 2.35445,-2.35447 v -2.24744 l -1.52503,-1.52505 v -0.7759 l 1.16384,-1.16385 v -6.16709 z"
         style="fill:#ffffff;fill-opacity:1;stroke:#151515;stroke-width:1;stroke-linecap:butt;stroke-linejoin:miter;stroke-opacity:0.99215686;stroke-miterlimit:4;stroke-dasharray:none" />
      <path
         style="opacity:0.98999999;fill:#ffffff;fill-opacity:1;stroke:#151515;stroke-width:1;stroke-linecap:round;stroke-linejoin:bevel;stroke-miterlimit:4;stroke-dasharray:none;stroke-dashoffset:0;stroke-opacity:0.99215686;paint-order:normal"
         d="m 294.09391,105.95486 a 13.484654,13.484654 0 0 0 -13.48452,13.48439 13.484654,13.484654 0 0 0 13.48439,13.48452 13.484654,13.484654 0 0 0 13.48452,-13.48439 13.484654,13.484654 0 0 0 -13.48439,-13.48452 z m -0.006,3.72691 a 4.7624374,4.7624374 0 0 1 4.76264,4.76237 4.7624374,4.7624374 0 0 1 -4.76237,4.76264 4.7624374,4.7624374 0 0 1 -4.76264,-4.76289 4.7624374,4.7624374 0 0 1 4.76237,-4.76212 z"
         id="path1154"
         inkscape:connector-curvature="0" />
      <path
         style="opacity:0.98999999;fill:#1a1a1a;fill-opacity:1;stroke:#151515;stroke-width:1.49999988;stroke-linecap:round;stroke-linejoin:bevel;stroke-miterlimit:4;stroke-dasharray:none;stroke-dashoffset:0;stroke-opacity:0.99215686;paint-order:normal"
         d="m 294.08761,109.68177 a 4.7624374,4.7624374 0 0 0 -4.76237,4.76212 4.7624374,4.7624374 0 0 0 4.76212,4.76237 4.7624374,4.7624374 0 0 0 4.76289,-4.76212 4.7624374,4.7624374 0 0 0 -4.76264,-4.76237 z m -1.8e-4,1.12448 a 3.6379584,3.6379584 0 0 1 3.63834,3.63771 3.6379584,3.6379584 0 0 1 -3.63823,3.63782 3.6379584,3.6379584 0 0 1 -3.63782,-3.63772 3.6379584,3.6379584 0 0 1 3.63771,-3.63781 z"
         id="path1156"
         inkscape:connector-curvature="0" />
      <path
         sodipodi:nodetypes="ccccc"
         inkscape:connector-curvature="0"
         id="path1189"
         d="m 291.6355,133.39342 0.007,25.30014 0.90435,0.9152 0.0512,-26.07331 z"
         style="fill:#1a1a1a;fill-opacity:1;stroke:#151515;stroke-width:1.32291663;stroke-linecap:butt;stroke-linejoin:miter;stroke-miterlimit:4;stroke-dasharray:none;stroke-opacity:0.99215686" />
    </g>
  </g>
</svg>
