<?xml version="1.0" encoding="UTF-8" standalone="no"?>
<!-- Generator: Adobe Illustrator 19.0.0, SVG Export Plug-In . SVG Version: 6.00 Build 0)  -->

<svg
   xmlns:dc="http://purl.org/dc/elements/1.1/"
   xmlns:cc="http://creativecommons.org/ns#"
   xmlns:rdf="http://www.w3.org/1999/02/22-rdf-syntax-ns#"
   xmlns:svg="http://www.w3.org/2000/svg"
   xmlns="http://www.w3.org/2000/svg"
   xmlns:sodipodi="http://sodipodi.sourceforge.net/DTD/sodipodi-0.dtd"
   xmlns:inkscape="http://www.inkscape.org/namespaces/inkscape"
   version="1.1"
   id="Layer_1"
   x="0px"
   y="0px"
   viewBox="0 0 503.467 503.467"
   style="enable-background:new 0 0 503.467 503.467;"
   xml:space="preserve"
   sodipodi:docname="network.svg"
   inkscape:version="0.92.2 (5c3e80d, 2017-08-06)"><metadata
     id="metadata45"><rdf:RDF><cc:Work
         rdf:about=""><dc:format>image/svg+xml</dc:format><dc:type
           rdf:resource="http://purl.org/dc/dcmitype/StillImage" /><dc:title></dc:title></cc:Work></rdf:RDF></metadata><defs
     id="defs43" /><sodipodi:namedview
     pagecolor="#ffffff"
     bordercolor="#666666"
     borderopacity="1"
     objecttolerance="10"
     gridtolerance="10"
     guidetolerance="10"
     inkscape:pageopacity="0"
     inkscape:pageshadow="2"
     inkscape:window-width="640"
     inkscape:window-height="480"
     id="namedview41"
     showgrid="false"
     inkscape:current-layer="g6" /><g
     transform="translate(1 1)"
     id="g6"><circle
       style="fill:#333333"
       cx="250.733"
       cy="250.734"
       r="247.467"
       id="circle2" /><g
       id="g893"
       transform="matrix(0.68016993,0,0,0.68016993,70.948083,86.949074)"
       style="fill:#80d6fa;fill-opacity:1;stroke:none;stroke-opacity:1"><g
         id="g837"
         style="fill:#80d6fa;fill-opacity:1;stroke:none;stroke-opacity:1"><path
           id="path835"
           d="m 381.6,309.4 c -27.7,0 -52.4,13.2 -68.2,33.6 L 181.1,269.1 c 3.1,-8.9 4.8,-18.5 4.8,-28.4 0,-10 -1.7,-19.5 -4.9,-28.5 l 132.2,-73.8 c 15.7,20.5 40.5,33.8 68.3,33.8 47.4,0 86.1,-38.6 86.1,-86.1 C 467.6,38.6 429,0 381.5,0 334,0 295.4,38.6 295.4,86.1 c 0,10 1.7,19.6 4.9,28.5 l -132.1,73.8 c -15.7,-20.6 -40.5,-33.8 -68.3,-33.8 -47.4,0 -86.1,38.6 -86.1,86.1 0,47.5 38.7,86.1 86.2,86.1 27.8,0 52.6,-13.3 68.4,-33.9 l 132.2,73.9 c -3.2,9 -5,18.7 -5,28.7 0,47.4 38.6,86.1 86.1,86.1 47.5,0 86.1,-38.6 86.1,-86.1 0,-47.5 -38.7,-86.1 -86.2,-86.1 z m 0,-282.3 c 32.6,0 59.1,26.5 59.1,59.1 0,32.6 -26.5,59.1 -59.1,59.1 -32.6,0 -59.1,-26.5 -59.1,-59.1 0,-32.6 26.6,-59.1 59.1,-59.1 z M 100,299.8 c -32.6,0 -59.1,-26.5 -59.1,-59.1 0,-32.6 26.5,-59.1 59.1,-59.1 32.6,0 59.1,26.5 59.1,59.1 0,32.6 -26.6,59.1 -59.1,59.1 z m 281.6,154.7 c -32.6,0 -59.1,-26.5 -59.1,-59.1 0,-32.6 26.5,-59.1 59.1,-59.1 32.6,0 59.1,26.5 59.1,59.1 0,32.6 -26.5,59.1 -59.1,59.1 z"
           inkscape:connector-curvature="0"
           style="fill:#80d6fa;fill-opacity:1;stroke:none;stroke-opacity:1" /></g><g
         id="g839"
         style="fill:#80d6fa;fill-opacity:1;stroke:none;stroke-opacity:1" /><g
         id="g841"
         style="fill:#80d6fa;fill-opacity:1;stroke:none;stroke-opacity:1" /><g
         id="g843"
         style="fill:#80d6fa;fill-opacity:1;stroke:none;stroke-opacity:1" /><g
         id="g845"
         style="fill:#80d6fa;fill-opacity:1;stroke:none;stroke-opacity:1" /><g
         id="g847"
         style="fill:#80d6fa;fill-opacity:1;stroke:none;stroke-opacity:1" /><g
         id="g849"
         style="fill:#80d6fa;fill-opacity:1;stroke:none;stroke-opacity:1" /><g
         id="g851"
         style="fill:#80d6fa;fill-opacity:1;stroke:none;stroke-opacity:1" /><g
         id="g853"
         style="fill:#80d6fa;fill-opacity:1;stroke:none;stroke-opacity:1" /><g
         id="g855"
         style="fill:#80d6fa;fill-opacity:1;stroke:none;stroke-opacity:1" /><g
         id="g857"
         style="fill:#80d6fa;fill-opacity:1;stroke:none;stroke-opacity:1" /><g
         id="g859"
         style="fill:#80d6fa;fill-opacity:1;stroke:none;stroke-opacity:1" /><g
         id="g861"
         style="fill:#80d6fa;fill-opacity:1;stroke:none;stroke-opacity:1" /><g
         id="g863"
         style="fill:#80d6fa;fill-opacity:1;stroke:none;stroke-opacity:1" /><g
         id="g865"
         style="fill:#80d6fa;fill-opacity:1;stroke:none;stroke-opacity:1" /><g
         id="g867"
         style="fill:#80d6fa;fill-opacity:1;stroke:none;stroke-opacity:1" /></g></g><g
     id="g10" /><g
     id="g12" /><g
     id="g14" /><g
     id="g16" /><g
     id="g18" /><g
     id="g20" /><g
     id="g22" /><g
     id="g24" /><g
     id="g26" /><g
     id="g28" /><g
     id="g30" /><g
     id="g32" /><g
     id="g34" /><g
     id="g36" /><g
     id="g38" /></svg>