<?xml version="1.0" encoding="UTF-8" standalone="no"?>
<!-- Created with Inkscape (http://www.inkscape.org/) -->

<svg
   xmlns:dc="http://purl.org/dc/elements/1.1/"
   xmlns:cc="http://creativecommons.org/ns#"
   xmlns:rdf="http://www.w3.org/1999/02/22-rdf-syntax-ns#"
   xmlns:svg="http://www.w3.org/2000/svg"
   xmlns="http://www.w3.org/2000/svg"
   xmlns:sodipodi="http://sodipodi.sourceforge.net/DTD/sodipodi-0.dtd"
   xmlns:inkscape="http://www.inkscape.org/namespaces/inkscape"
   width="14in"
   height="8.5in"
   viewBox="0 0 355.6 215.9"
   version="1.1"
   id="svg8"
   inkscape:version="0.92.2 (5c3e80d, 2017-08-06)"
   sodipodi:docname="shop.svg">
  <defs
     id="defs2" />
  <sodipodi:namedview
     id="base"
     pagecolor="#ffffff"
     bordercolor="#666666"
     borderopacity="1.0"
     inkscape:pageopacity="0.0"
     inkscape:pageshadow="2"
     inkscape:zoom="0.35"
     inkscape:cx="400"
     inkscape:cy="560"
     inkscape:document-units="mm"
     inkscape:current-layer="g1376"
     showgrid="false"
     fit-margin-top="0"
     fit-margin-left="0"
     fit-margin-right="0"
     fit-margin-bottom="0"
     units="in" />
  <metadata
     id="metadata5">
    <rdf:RDF>
      <cc:Work
         rdf:about="">
        <dc:format>image/svg+xml</dc:format>
        <dc:type
           rdf:resource="http://purl.org/dc/dcmitype/StillImage" />
        <dc:title></dc:title>
      </cc:Work>
    </rdf:RDF>
  </metadata>
  <g
     inkscape:label="Layer 1"
     inkscape:groupmode="layer"
     id="layer1"
     transform="translate(-38.402447,104.79081)">
    <g
       id="g1376"
       transform="rotate(0.07,43680.898,-181778.93)"
       style="display:inline;enable-background:new">
      <rect
         style="opacity:1;fill:#ffffff;fill-opacity:1;stroke:#000000;stroke-width:3.00000024;stroke-linecap:round;stroke-linejoin:round;stroke-miterlimit:4;stroke-dasharray:none;stroke-dashoffset:0;stroke-opacity:0.9921568;paint-order:fill markers stroke"
         id="rect3516"
         width="50.601562"
         height="33.469791"
         x="266.54007"
         y="127.10662"
         transform="rotate(-0.07)" />
      <path
         style="opacity:1;fill:#ffffff;fill-opacity:1;stroke:#000000;stroke-width:3.00000024;stroke-linecap:round;stroke-linejoin:round;stroke-miterlimit:4;stroke-dasharray:none;stroke-dashoffset:0;stroke-opacity:0.9921568;paint-order:fill markers stroke"
         d="m 263.23033,160.25475 58.14214,-0.071"
         id="path3510"
         inkscape:connector-curvature="0" />
      <rect
         style="opacity:1;fill:#ffffff;fill-opacity:1;stroke:#000000;stroke-width:3.00000024;stroke-linecap:round;stroke-linejoin:round;stroke-miterlimit:4;stroke-dasharray:none;stroke-dashoffset:0;stroke-opacity:0.9921568;paint-order:fill markers stroke"
         id="rect3512"
         width="25.135418"
         height="17.396355"
         x="271.50101"
         y="137.68977"
         transform="rotate(-0.07)" />
      <rect
         style="opacity:1;fill:#ffffff;fill-opacity:1;stroke:#000000;stroke-width:3.00000024;stroke-linecap:round;stroke-linejoin:round;stroke-miterlimit:4;stroke-dasharray:none;stroke-dashoffset:0;stroke-opacity:0.9921568;paint-order:fill markers stroke"
         id="rect3514"
         width="11.840104"
         height="22.555729"
         x="301.39893"
         y="138.02068"
         transform="rotate(-0.07)" />
      <path
         style="opacity:1;fill:#ffffff;fill-opacity:1;stroke:#000000;stroke-width:11.33858395;stroke-linecap:round;stroke-linejoin:round;stroke-miterlimit:4;stroke-dasharray:none;stroke-dashoffset:0;stroke-opacity:0.9921568;paint-order:fill markers stroke"
         d="M 42.25,19.570312 10,70.318359 l 32.25,0.002 v -0.002 h 156.125 l 32.25,0.002 -32.25,-50.75 z"
         transform="matrix(0.26458314,-3.2324944e-4,3.2324944e-4,0.26458314,260.587,108.1662)"
         id="path3522"
         inkscape:connector-curvature="0" />
      <path
         style="opacity:1;fill:#ffffff;fill-opacity:1;stroke:#000000;stroke-width:2.61734056;stroke-linecap:round;stroke-linejoin:round;stroke-miterlimit:4;stroke-dasharray:none;stroke-dashoffset:0;stroke-opacity:0.9921568;paint-order:fill markers stroke"
         d="m 263.51637,126.76817 a 7.2712989,7.2712989 0 0 0 -0.009,0.17314 7.2712989,7.2712989 0 0 0 7.28019,7.26241 7.2712989,7.2712989 0 0 0 7.2624,-7.28017 7.2712989,7.2712989 0 0 0 -0.005,-0.17312 z"
         id="path3543"
         inkscape:connector-curvature="0" />
      <path
         style="display:inline;opacity:1;fill:#ffffff;fill-opacity:1;stroke:#000000;stroke-width:2.61734056;stroke-linecap:round;stroke-linejoin:round;stroke-miterlimit:4;stroke-dasharray:none;stroke-dashoffset:0;stroke-opacity:0.9921568;paint-order:fill markers stroke;enable-background:new"
         d="m 278.04446,126.75043 a 7.271299,7.271299 0 0 0 -0.009,0.17314 7.271299,7.271299 0 0 0 7.28018,7.26242 7.271299,7.271299 0 0 0 7.26241,-7.28018 7.271299,7.271299 0 0 0 -0.005,-0.17311 z"
         id="path3543-6"
         inkscape:connector-curvature="0" />
      <path
         style="display:inline;opacity:1;fill:#ffffff;fill-opacity:1;stroke:#000000;stroke-width:2.61734056;stroke-linecap:round;stroke-linejoin:round;stroke-miterlimit:4;stroke-dasharray:none;stroke-dashoffset:0;stroke-opacity:0.9921568;paint-order:fill markers stroke;enable-background:new"
         d="m 292.57255,126.7327 a 7.271299,7.271299 0 0 0 -0.009,0.17314 7.271299,7.271299 0 0 0 7.28019,7.26241 7.271299,7.271299 0 0 0 7.2624,-7.28018 7.271299,7.271299 0 0 0 -0.005,-0.17311 z"
         id="path3543-6-0"
         inkscape:connector-curvature="0" />
      <path
         style="display:inline;opacity:1;fill:#ffffff;fill-opacity:1;stroke:#000000;stroke-width:2.61734056;stroke-linecap:round;stroke-linejoin:round;stroke-miterlimit:4;stroke-dasharray:none;stroke-dashoffset:0;stroke-opacity:0.9921568;paint-order:fill markers stroke;enable-background:new"
         d="m 307.10063,126.71496 a 7.271299,7.271299 0 0 0 -0.009,0.17313 7.271299,7.271299 0 0 0 7.28019,7.26242 7.271299,7.271299 0 0 0 7.2624,-7.28017 7.271299,7.271299 0 0 0 -0.005,-0.17312 z"
         id="path3543-6-9"
         inkscape:connector-curvature="0" />
    </g>
  </g>
</svg>
