<?xml version="1.0" encoding="UTF-8" standalone="no"?>
<!-- Created with Inkscape (http://www.inkscape.org/) -->

<svg
   xmlns:dc="http://purl.org/dc/elements/1.1/"
   xmlns:cc="http://creativecommons.org/ns#"
   xmlns:rdf="http://www.w3.org/1999/02/22-rdf-syntax-ns#"
   xmlns:svg="http://www.w3.org/2000/svg"
   xmlns="http://www.w3.org/2000/svg"
   xmlns:sodipodi="http://sodipodi.sourceforge.net/DTD/sodipodi-0.dtd"
   xmlns:inkscape="http://www.inkscape.org/namespaces/inkscape"
   width="119.10125mm"
   height="76.136116mm"
   viewBox="0 0 119.10125 76.136116"
   version="1.1"
   id="svg8"
   inkscape:version="0.92.2 (5c3e80d, 2017-08-06)"
   sodipodi:docname="visible.svg">
  <defs
     id="defs2" />
  <sodipodi:namedview
     id="base"
     pagecolor="#ffffff"
     bordercolor="#666666"
     borderopacity="1.0"
     inkscape:pageopacity="0.0"
     inkscape:pageshadow="2"
     inkscape:zoom="1.979899"
     inkscape:cx="30.953207"
     inkscape:cy="94.019297"
     inkscape:document-units="mm"
     inkscape:current-layer="layer1"
     showgrid="false"
     inkscape:lockguides="true"
     fit-margin-top="0"
     fit-margin-left="0"
     fit-margin-right="0"
     fit-margin-bottom="0"
     inkscape:window-width="2736"
     inkscape:window-height="1719"
     inkscape:window-x="-13"
     inkscape:window-y="-13"
     inkscape:window-maximized="1" />
  <metadata
     id="metadata5">
    <rdf:RDF>
      <cc:Work
         rdf:about="">
        <dc:format>image/svg+xml</dc:format>
        <dc:type
           rdf:resource="http://purl.org/dc/dcmitype/StillImage" />
        <dc:title></dc:title>
      </cc:Work>
    </rdf:RDF>
  </metadata>
  <g
     inkscape:label="Layer 1"
     inkscape:groupmode="layer"
     id="layer1"
     transform="translate(-62.925585,-94.377388)">
    <path
       style="fill:#212138;fill-opacity:1;fill-rule:nonzero;stroke:none;stroke-width:5.18309879;stroke-linecap:round;stroke-linejoin:miter;stroke-miterlimit:4;stroke-dasharray:none;stroke-dashoffset:0;stroke-opacity:1;paint-order:fill markers stroke"
       d="m 122.47595,107.85677 a 24.588796,24.588796 0 0 0 -24.588678,24.58868 24.588796,24.588796 0 0 0 24.588678,24.58867 24.588796,24.588796 0 0 0 24.5892,-24.58867 24.588796,24.588796 0 0 0 -24.5892,-24.58868 z m 0,8.81961 a 15.768903,15.768903 0 0 1 15.76907,15.76907 15.768903,15.768903 0 0 1 -15.76907,15.76906 15.768903,15.768903 0 0 1 -15.76854,-15.76906 15.768903,15.768903 0 0 1 15.76854,-15.76907 z"
       id="path837"
       inkscape:connector-curvature="0" />
    <circle
       style="fill:#212138;fill-opacity:1;fill-rule:nonzero;stroke:none;stroke-width:2.05633807;stroke-linecap:round;stroke-linejoin:miter;stroke-miterlimit:4;stroke-dasharray:none;stroke-dashoffset:0;stroke-opacity:1;paint-order:fill markers stroke"
       id="path837-4-4"
       cx="122.47621"
       cy="132.44545"
       r="9.7553387" />
    <path
       style="fill:#212138;fill-opacity:1;stroke:#000000;stroke-width:0.26458332px;stroke-linecap:butt;stroke-linejoin:miter;stroke-opacity:1"
       d="M 122.5765,94.509829 C 99.658134,94.45972 76.70648,107.05489 63.075735,132.4455 c 27.261486,50.7812 91.806795,50.3803 118.801015,0 C 168.37964,107.25535 145.49486,94.559944 122.5765,94.509829 Z m -0.0155,5.916431 c 19.34398,0.0423 38.65965,10.75779 50.05173,32.01924 -22.78416,42.5229 -77.263201,42.86128 -100.272949,0 C 83.84466,111.01486 103.21702,100.38397 122.561,100.42626 Z"
       id="path870"
       inkscape:connector-curvature="0" />
  </g>
</svg>
