<?xml version="1.0" encoding="UTF-8" standalone="no"?>
<!-- Generator: Adobe Illustrator 24.3.0, SVG Export Plug-In . SVG Version: 6.00 Build 0)  -->

<svg
   xmlns:dc="http://purl.org/dc/elements/1.1/"
   xmlns:cc="http://creativecommons.org/ns#"
   xmlns:rdf="http://www.w3.org/1999/02/22-rdf-syntax-ns#"
   xmlns:svg="http://www.w3.org/2000/svg"
   xmlns="http://www.w3.org/2000/svg"
   xmlns:sodipodi="http://sodipodi.sourceforge.net/DTD/sodipodi-0.dtd"
   xmlns:inkscape="http://www.inkscape.org/namespaces/inkscape"
   version="1.1"
   id="Layer_1"
   x="0px"
   y="0px"
   viewBox="0 0 180.3 72.8"
   style="enable-background:new 0 0 180.3 72.8;"
   xml:space="preserve"
   sodipodi:docname="empty-mvp.svg"
   inkscape:export-filename="C:\Users\user\OneDrive\Personal\01. MarczakIO\images\empty-mvp.png"
   inkscape:export-xdpi="2662.2295"
   inkscape:export-ydpi="2662.2295"
   inkscape:version="0.92.2 (5c3e80d, 2017-08-06)"><metadata
     id="metadata85"><rdf:RDF><cc:Work
         rdf:about=""><dc:format>image/svg+xml</dc:format><dc:type
           rdf:resource="http://purl.org/dc/dcmitype/StillImage" /></cc:Work></rdf:RDF></metadata><defs
     id="defs83" /><sodipodi:namedview
     pagecolor="#ffffff"
     bordercolor="#666666"
     borderopacity="1"
     objecttolerance="10"
     gridtolerance="10"
     guidetolerance="10"
     inkscape:pageopacity="0"
     inkscape:pageshadow="2"
     inkscape:window-width="640"
     inkscape:window-height="480"
     id="namedview81"
     showgrid="false"
     inkscape:current-layer="g78" /><style
     type="text/css"
     id="style2">
	.st0{fill:#002050;}
	.st1{fill:#FFFFFF;}
</style><g
     id="g78"><path
       style="opacity:1;fill:#000080;fill-opacity:1;fill-rule:evenodd;stroke:none;stroke-width:50;stroke-linecap:butt;stroke-linejoin:bevel;stroke-miterlimit:4;stroke-dasharray:none;stroke-dashoffset:0;stroke-opacity:1;paint-order:markers fill stroke"
       d="M 43.95151,4.6990309 12.250338,36.400203 43.95151,68.099422 75.650728,36.400203 Z m 110.29883,5.5000001 c -1.3,-10e-7 -2.20039,0.401563 -2.90039,1.101563 -0.7,0.7 -1,1.7 -1,3 v 1.699219 h -1.39844 v 2.40039 h 1.39844 v 9.199219 h 2.90039 v -9.199219 h 1.20117 v 0.09961 h 2.39844 v 5.800781 c 0,2.3 1,3.5 3,3.5 0.6,0 1.30039,-0.200391 1.90039,-0.400391 v -2.201172 c -0.3,0.1 -0.60039,0.201172 -0.90039,0.201172 -0.7,0 -1.09961,-0.500391 -1.09961,-1.40039 v -5.59961 h 2 v -2.40039 h -2 v -3.59961 c -0.1,0 -0.99922,0.300391 -2.69922,0.900391 l -0.20117,0.09961 v 2.59961 h -1.69922 -0.69922 -1.20117 v -1.800782 c 0,-1 0.40117,-1.5 1.20117,-1.5 0.4,0 0.69844,0.0016 0.89844,0.101563 h 0.10156 v -2.400391 l -0.5,-0.09961 c -0.2,-0.09996 -0.40117,-0.101563 -0.70117,-0.101563 z m -52.69922,0.601563 c -0.5,0 -1.00078,0.2 -1.30078,0.5 -0.300001,0.3 -0.500001,0.798828 -0.500001,1.298828 0,0.5 0.2,0.900781 0.500001,1.300781 0.4,0.3 0.80078,0.5 1.30078,0.5 0.5,0 0.99883,-0.1 1.29883,-0.5 0.3,-0.3 0.5,-0.800781 0.5,-1.300781 0,-0.5 -0.2,-0.998828 -0.5,-1.298828 -0.3,-0.3 -0.79883,-0.5 -1.29883,-0.5 z m -17.900392,0.599609 v 16.199219 h 2.59961 v -8.599609 c 0,-1.5 3.9e-4,-3 -0.09961,-4.5 h 0.09961 l 0.40039,2.90039 2.5,10.199219 h 2.800781 l 2.39844,-10.400391 c 0.2,-1.1 0.4,-1.999219 0.5,-2.699218 h 0.10156 c -0.0996,1.699999 -0.10156,2.899218 -0.10156,3.699218 v 9.400391 h 2.70117 V 11.400203 h -4.20117 l -2.09961,9.798828 c -0.100002,0.4 -0.198829,1.1 -0.298829,2 l -0.101563,0.601563 h -0.09961 c 0,-0.7 -0.200391,-1.5 -0.400391,-2.5 l -2.298827,-9.900391 z m 82.400392,1.59961 c -0.8,0 -1.5,0.200781 -2,0.800781 -0.5,0.6 -0.80078,1.2 -0.80078,2 0,0.8 0.30078,1.5 0.80078,2 0.5,0.5 1.2,0.798828 2,0.798828 0.8,0 1.5,-0.298828 2,-0.798828 0.5,-0.6 0.79883,-1.2 0.79883,-2 0,-0.8 -0.29883,-1.5 -0.79883,-2 -0.5,-0.5 -1.2,-0.800781 -2,-0.800781 z m 0,0.40039 c 0.7,0 1.29922,0.299219 1.69922,0.699219 0.5,0.5 0.70117,1.001172 0.70117,1.701172 0,0.7 -0.20117,1.199219 -0.70117,1.699219 -0.5,0.5 -0.99922,0.699218 -1.69922,0.699218 -0.7,0 -1.20117,-0.199218 -1.70117,-0.699218 -0.5,-0.5 -0.69922,-0.999219 -0.69922,-1.699219 0,-0.7 0.29922,-1.201172 0.69922,-1.701172 0.4,-0.5 1.00117,-0.699219 1.70117,-0.699219 z m -1.20117,0.59961 v 3.5 h 0.70117 v -1.400391 h 0.29883 c 0.2,0 0.4,0.2 0.5,0.5 l 0.30078,0.900391 h 0.69922 l -0.39844,-1 c -0.1,-0.3 -0.3,-0.49961 -0.5,-0.59961 0.5,-0.1 0.79883,-0.40039 0.79883,-0.90039 0,-0.3 -0.0988,-0.499219 -0.29883,-0.699219 -0.2,-0.2 -0.6,-0.300781 -1,-0.300781 z m 0.70117,0.599609 h 0.40039 c 0.5,0 0.69922,0.2 0.69922,0.5 0,0.2 -0.0992,0.300391 -0.19922,0.400391 -0.1,0 -0.20039,0.09961 -0.40039,0.09961 h -0.5 z m -40.90039,1.099609 c -1.5,0 -2.7,0.601563 -3.5,1.601563 -0.9,1 -1.30078,2.498437 -1.30078,4.398437 0,2 0.40117,3.4 1.20117,4.5 0.8,1.1 2,1.601563 3.5,1.601563 1.6,0 2.79961,-0.501172 3.59961,-1.701172 0.8,-1.1 1.19922,-2.599609 1.19922,-4.599609 0,-1.8 -0.29922,-3.300782 -1.19922,-4.300782 -0.9,-1 -2,-1.5 -3.5,-1.5 z m 19.09961,0 c -1.5,0 -2.6,0.601563 -3.5,1.601563 -0.9,1 -1.29883,2.498437 -1.29883,4.398437 0,2 0.39922,3.5 1.19922,4.5 0.9,1.1 2,1.601563 3.5,1.601563 1.5,0 2.69961,-0.501172 3.59961,-1.701172 0.8,-1.1 1.20117,-2.599609 1.20117,-4.599609 0,-1.8 -0.30117,-3.300782 -1.20117,-4.300782 -0.9,-1 -2,-1.5 -3.5,-1.5 z m -34.09961,0.101563 c -1.4,0 -2.6,0.599218 -3.5,1.699219 -0.9,1.1 -1.30078,2.599609 -1.30078,4.599609 0,1.6 0.50078,2.999609 1.30078,4.099609 0.8,1.1 1.89922,1.601563 3.19922,1.601563 1,0 1.80039,-0.201172 2.40039,-0.701172 v -2.400391 c -0.5,0.4 -0.99922,0.601563 -1.69922,0.601563 -0.7,0 -1.19961,-0.300391 -1.59961,-0.900391 -0.4,-0.6 -0.60156,-1.499609 -0.60156,-2.599609 0,-1.1 0.20156,-1.901563 0.60156,-2.601563 0.4,-0.7 0.89961,-1 1.59961,-1 0.7,0 1.19961,0.301172 1.59961,0.701172 v -2.599609 c -0.4,-0.3 -1.1,-0.5 -2,-0.5 z m 9.30078,0 c -1.2,0 -2.00039,0.699609 -2.40039,2.099609 h -0.0996 v -1.90039 h -2.90039 v 11.599609 h 2.90039 v -5.798828 c 0,-2.1 0.79922,-3.201172 2.19922,-3.201172 0.3,0 0.7,0.101172 1,0.201172 v -2.900391 c -0.2,-0.1 -0.49922,-0.09961 -0.69922,-0.09961 z m 16,0 c -1.3,0 -2.3,0.4 -3,1 -0.7,0.6 -1.10156,1.5 -1.10156,2.5 0,0.6 0.2,1.198828 0.5,1.798828 0.3,0.6 1.00156,1.200781 2.10156,1.800781 0.4,0.3 0.8,0.499219 1,0.699219 0.30004,0.2 0.39844,0.500781 0.39844,0.800781 0,0.7 -0.49844,1.09961 -1.39844,1.09961 -0.9,0 -1.80156,-0.300391 -2.60156,-0.900391 v 2.599609 c 0.7,0.4 1.60078,0.601563 2.80078,0.601563 1.3,0 2.3,-0.4 3,-1 0.7,-0.6 1.09961,-1.5 1.09961,-2.5 0,-0.8 -0.2,-1.400391 -0.5,-1.900391 -0.3,-0.6 -1,-1.101172 -2,-1.701172 -0.6,-0.4 -0.99922,-0.698437 -1.19922,-0.898437 -0.1,-0.2 -0.20117,-0.501172 -0.20117,-0.701172 0,-0.7 0.50039,-1.099609 1.40039,-1.099609 0.6,0 1.29961,0.299218 2.09961,0.699218 v -2.5 c -0.7,-0.299998 -1.49844,-0.398437 -2.39844,-0.398437 z m -34.90039,0.199219 v 11.599609 h 2.90039 V 15.999813 Z m 24.59961,2.199218 c 1.1,0 1.69922,1.200391 1.69922,3.400391 0,2.5 -0.59922,3.701172 -1.69922,3.701172 -1.1,0 -1.69922,-1.201563 -1.69922,-3.601563 0,-2.3 0.59922,-3.5 1.69922,-3.5 z m 19,0 c 1.1,0 1.69961,1.200391 1.59961,3.400391 0,2.5 -0.49961,3.701172 -1.59961,3.701172 -1.1,0 -1.69922,-1.201563 -1.69922,-3.601563 0,-2.3 0.59922,-3.5 1.69922,-3.5 z M 23.45151,26.099422 h 5.199218 l 2.699219,11.599609 c 0.3,1.2 0.5,2.2 0.5,3 h 0.101563 l 0.09961,-0.699218 c 0.1,-0.999998 0.198828,-1.800782 0.298828,-2.300782 l 2.601563,-11.5 h 5 V 45.300594 H 36.750338 V 34.199031 c 0,-0.9 -3.91e-4,-2.398828 0.09961,-4.298828 h -0.09961 c -0.1,0.8 -0.29961,1.899219 -0.59961,3.199219 l -2.90039,12.300781 h -3.400391 l -2.898437,-12.099609 -0.5,-3.400391 h -0.101563 c 0.09996,1.8 0.101563,3.498828 0.101563,5.298828 v 10 h -3 z m 17.5,0.09961 h 3.798828 l 2.701172,12.601563 c 0.1,0.599996 0.198828,1.398437 0.298828,2.398437 h 0.09961 l 0.101563,-0.5 c 0.1,-0.6 0.198828,-1.300002 0.298828,-2 l 2.701172,-12.5 h 3.699218 l -4.90039,19.101563 h -3.900391 z m 14.898437,0 h 5.5 c 1.8,0 3.201172,0.601563 4.201172,1.601563 1,1 1.5,2.5 1.5,4.5 0,1.9 -0.601172,3.499218 -1.701172,4.699219 -1.1,1.2 -2.598437,1.800781 -4.398437,1.800781 h -1.5 l 0.09961,6.5 h -3.701172 z m 3.5,3.201172 v 6.298828 h 1.300781 c 1.7,0 2.5,-1.099218 2.5,-3.199218 0,-1 -0.199218,-1.800782 -0.699218,-2.300782 -0.4,-0.5 -1.000782,-0.798828 -1.800782,-0.798828 H 59.45151 Z m 73.900393,2.699219 v 12.900391 h 1.20117 V 32.099422 Z m 18.80078,0 v 12.900391 h 1.19922 v -1.09961 c 0.4,0.8 1.00039,1.199219 1.90039,1.199219 1,0 1.80078,-0.498828 2.30078,-1.298828 0.5,-0.8 0.79883,-2.101563 0.79883,-3.601563 0,-1.299998 -0.19922,-2.3 -0.69922,-3 -0.5,-0.7 -1.1,-1.099609 -2,-1.099609 -1.1,0 -1.80078,0.599609 -2.30078,1.599609 v -5.599609 z m 7.90039,0 v 12.900391 h 1.19922 V 32.099422 Z m -76.300782,0.701172 v 12.099609 h 1.199219 v -8 c 0,-0.8 3.91e-4,-1.600391 -0.09961,-2.40039 h 0.09961 c 0.1,0.899999 0.200781,1.499218 0.300781,1.699218 l 2.900391,8.800782 h 0.900391 l 2.898439,-8.800782 c 0.2,-0.3 0.30039,-0.8 0.40039,-1.5 h 0.0996 l -0.0996,0.900391 c -0.1,0.4 -0.0996,0.800781 -0.0996,1.300781 v 8.09961 h 1.09961 v -12.09961 h -1.59961 l -2.800782,8.699219 -0.298828,1.400391 c -0.1,-0.500001 -0.200781,-1.000391 -0.300781,-1.400391 l -2.900391,-8.798828 z m 33.199222,0 3.40039,12.199219 h 1.30078 l 3.40039,-12.199219 h -1.30078 l -2.5,9.199219 c -0.2,0.7 -0.30078,1.200781 -0.30078,1.300781 0,-0.5 -0.0992,-0.900782 -0.19922,-1.300781 l -2.40039,-9.199219 z m -5.69922,0.898437 -1.19922,0.400391 v 2.201172 h -1.20117 v 1 h 1.20117 v 5.599609 c 0,1.4 0.59844,2.199219 1.89844,2.199219 0.4,0 0.80156,7.81e-4 1.10156,-0.199219 v -1.201172 c -0.2,0.1 -0.50078,0.201172 -0.80078,0.201172 -0.7,0 -1,-0.500781 -1,-1.300781 v -5.400391 h 1.80078 v -1 h -1.80078 z m -12.400391,2.300782 c -1,0 -1.80039,0.399218 -2.40039,1.199218 -0.6,0.8 -0.89844,2.000391 -0.89844,3.400391 0,1.4 0.19883,2.500781 0.79883,3.300781 0.6,0.8 1.40039,1.199219 2.40039,1.199219 1.1,0 1.899611,-0.398828 2.599611,-1.298828 0.5,-0.8 0.80078,-1.900391 0.80078,-3.400391 0,-1.299996 -0.30039,-2.401172 -0.90039,-3.201172 -0.6,-0.8 -1.400391,-1.199218 -2.400391,-1.199218 z m 29.900391,0.09961 c -0.8,0 -1.60039,0.201172 -2.40039,0.701172 v 1.298828 c 0.8,-0.6 1.50117,-0.900391 2.20117,-0.900391 1,0 1.5,0.601172 1.5,1.701172 v 0.59961 l -2.10156,0.5 c -1.5,0.4 -2.29883,1.300781 -2.29883,2.800781 0,0.7 0.19961,1.199219 0.59961,1.699219 0.4,0.5 0.99961,0.699218 1.59961,0.699218 1,0 1.80117,-0.5 2.20117,-1.5 v 1.300782 l 1.29883,-0.09961 v -6 c 0,-1.9 -0.89961,-2.800781 -2.59961,-2.800781 z m 18.59961,0 c -0.8,0 -1.60039,0.201172 -2.40039,0.701172 v 1.298828 c 0.8,-0.6 1.50117,-0.900391 2.20117,-0.900391 1,0 1.5,0.601172 1.5,1.701172 v 0.59961 l -2.09961,0.5 c -1.5,0.4 -2.30078,1.300781 -2.30078,2.800781 0,0.7 0.19961,1.199219 0.59961,1.699219 0.5,0.5 0.99961,0.699218 1.59961,0.699218 1,0 1.80117,-0.5 2.20117,-1.5 v 1.300782 l 1.29883,-0.09961 v -6 c 0,-1.9 -0.89961,-2.800781 -2.59961,-2.800781 z m -41.19922,0.09961 c -0.7,0 -1.40039,0.201172 -1.90039,0.701172 -0.5,0.4 -0.80078,0.999219 -0.80078,1.699219 0,0.5 0.20039,0.900781 0.40039,1.300781 0.2,0.4 0.79961,0.798828 1.59961,1.298828 0.5,0.3 0.90156,0.600781 1.10156,0.800782 0.20003,0.3 0.29883,0.500781 0.29883,0.800781 0,0.9 -0.5,1.398437 -1.5,1.398437 -0.6,0 -1.30039,-0.299219 -1.90039,-0.699218 v 1.199218 c 0.5,0.3 1.10039,0.401563 1.90039,0.601563 0.8,0 1.6,-0.301172 2,-0.701172 0.4,-0.4 0.70117,-0.999219 0.70117,-1.699219 0,-0.5 -0.10078,-0.900781 -0.30078,-1.300781 -0.2,-0.4 -0.79961,-0.798828 -1.59961,-1.298828 -0.6,-0.4 -1.00117,-0.700391 -1.20117,-0.900391 -0.20003,-0.299996 -0.29883,-0.500781 -0.29883,-0.800781 0,-0.4 0.10039,-0.7 0.40039,-1 0.3,-0.3 0.69961,-0.400391 1.09961,-0.400391 0.6,0 1.09922,0.2 1.69922,0.5 v -1.199218 c -0.5,-0.200001 -1.09922,-0.300782 -1.69922,-0.300782 z m 60.19922,0 c -1,0 -1.80039,0.401172 -2.40039,1.201172 -0.6,0.8 -0.89844,1.899219 -0.89844,3.199219 0,1.5 0.29844,2.600391 0.89844,3.400391 0.6,0.799999 1.4,1.199218 2.5,1.199218 0.8,0 1.50117,-0.199609 2.20117,-0.599609 v -1.199219 c -0.7,0.5 -1.3,0.699219 -2,0.699219 -1.5,0 -2.30078,-1.099219 -2.30078,-3.199219 l 4.80078,0.09961 v -0.800782 c 0,-2.699998 -0.90078,-4 -2.80078,-4 z m -29.59961,0.101563 v 6.099609 c 0,1.9 0.80039,2.798828 2.40039,2.798828 1,0 1.69922,-0.5 2.19922,-1.5 v 1.300782 h 1.20117 v -8.699219 h -1.20117 v 5.599609 c 0,0.7 -0.2,1.19961 -0.5,1.59961 -0.3,0.399999 -0.79883,0.599609 -1.29883,0.599609 -1.1,0 -1.60156,-0.7 -1.60156,-2 v -5.798828 z m 29.5,0.798828 c 1,0 1.59961,1.000785 1.59961,2.800781 h -3.5 c 0.1,-0.899996 0.29961,-1.599609 0.59961,-2.099609 0.3,-0.5 0.70078,-0.701172 1.30078,-0.701172 z m -67.500001,0.09961 c 0.7,0 1.1,0.300782 1.500001,0.800782 0.3,0.6 0.5,1.399999 0.5,2.5 0,2.299999 -0.700001,3.5 -2.000001,3.5 -1.3,-10e-7 -2,-1.100391 -2,-3.400391 0,-1.1 0.1,-1.9 0.5,-2.5 0.4,-0.6 0.9,-0.900391 1.5,-0.900391 z m 56.500001,0.101563 c 0.5,0 1.00078,0.298828 1.30078,0.798828 0.3,0.5 0.5,1.300781 0.5,2.300781 0,2.5 -0.7,3.699219 -2,3.699219 -0.5,0 -1.00078,-0.298828 -1.30078,-0.798828 -0.3,-0.6 -0.5,-1.2 -0.5,-2 v -1.201172 c 0,-0.8 0.19961,-1.5 0.59961,-2 0.3,-0.5 0.80039,-0.798828 1.40039,-0.798828 z m -25.19922,3.099609 h 0.0996 v 1.09961 c 0,0.8 -0.2,1.300781 -0.5,1.800781 -0.3,0.5 -0.70078,0.699219 -1.30078,0.699219 -0.4,-10e-7 -0.7,-0.100391 -1,-0.400391 -0.3,-0.2 -0.40039,-0.599609 -0.40039,-1.099609 0,-0.900001 0.40039,-1.499219 1.40039,-1.699219 z m 18.59961,0 h 0.0996 v 1.09961 c 0,0.8 -0.2,1.300781 -0.5,1.800781 -0.3,0.5 -0.70078,0.699219 -1.30078,0.699219 -0.4,-10e-7 -0.7,-0.100391 -1,-0.400391 -0.30004,-0.2 -0.39844,-0.599609 -0.39844,-1.099609 0,-0.900001 0.39844,-1.499219 1.39844,-1.699219 z m -42,9 c -0.8,0 -1.40078,0.199219 -1.80078,0.699219 -0.4,0.5 -0.59961,1.100391 -0.59961,1.900391 v 1.699218 h -1.30078 v 1 h 1.30078 v 7.701172 h 1.30078 v -7.701172 h 1.69922 v -1 h -1.69922 v -1.798828 c 0,-1 0.39922,-1.5 1.19922,-1.5 0.3,0 0.49922,-3.91e-4 0.69922,0.09961 v -1 c -0.3,-0.09999 -0.59883,-0.09961 -0.79883,-0.09961 z m 47.29883,0.09961 v 12.800781 c 0,0.09999 1.30117,0.09961 1.20117,0.09961 v -12.90039 z m -25.79883,0.599609 c -0.2,0 -0.39961,0.0012 -0.59961,0.201172 -0.2,0.1 -0.30078,0.299609 -0.30078,0.599609 0,0.2 0.10078,0.399609 0.30078,0.59961 0.2,0.199999 0.39961,0.300781 0.59961,0.300781 0.2,0 0.39922,-0.100781 0.69922,-0.300781 0.1,-0.100001 0.20117,-0.29961 0.20117,-0.59961 0,-0.2 -0.10078,-0.399609 -0.30078,-0.599609 -0.2,-0.1 -0.39961,-0.201172 -0.59961,-0.201172 z m -44.300782,0.09961 v 12.201167 h 1.300781 v -4.599609 -0.101563 h 1.298828 c 1.1,0 2.001563,-0.299609 2.601563,-1.099609 0.6,-0.7 0.898437,-1.698828 0.898437,-2.798828 0,-1.2 -0.298437,-2.101172 -0.898437,-2.701172 -0.5,-0.6 -1.300391,-0.900391 -2.400391,-0.900391 z m 1.300781,1.101563 1.199219,0.09961 c 1.5,0 2.201172,0.8 2.201172,2.5 0,0.8 -0.201563,1.5 -0.601563,2 -0.4,0.4 -0.999219,0.699219 -1.699219,0.699219 h -1.099609 z m 9.59961,2.099609 c -1,0 -1.60039,0.599219 -1.90039,1.699219 v -1.5 h -1.19922 v 8.701172 h 1.19922 v -4.400391 c 0,-2.1 0.60039,-3.201172 1.90039,-3.201172 0.17685,0 0.43513,0.08272 0.69922,0.169922 v -1.36914 c -0.2,-0.09999 -0.39922,-0.09961 -0.69922,-0.09961 z m 0.69922,1.46875 v 0.03125 h 0.10156 c -0.0348,-0.0115 -0.067,-0.01985 -0.10156,-0.03125 z m 3.70117,-1.46875 c -1,0 -1.80039,0.399219 -2.40039,1.199219 -0.6,0.8 -0.90039,2.000391 -0.90039,3.400391 0,1.399999 0.20078,2.500781 0.80078,3.300781 0.6,0.8 1.40039,1.199219 2.40039,1.199219 1.100001,-10e-7 1.899611,-0.400782 2.599611,-1.300782 0.5,-0.8 0.79883,-1.898437 0.79883,-3.398437 0,-1.3 -0.29844,-2.401172 -0.89844,-3.201172 -0.6,-0.8 -1.40039,-1.199219 -2.400391,-1.199219 z m 34.699221,0 c -1,0 -1.80039,0.399219 -2.40039,1.199219 -0.6,0.8 -0.89844,2.000391 -0.89844,3.400391 0,1.399999 0.19883,2.500781 0.79883,3.300781 0.6,0.8 1.40039,1.199219 2.40039,1.199219 1.1,-10e-7 1.9,-0.400782 2.5,-1.300782 0.6,-0.8 0.90039,-1.898437 0.90039,-3.398437 0,-1.3 -0.30039,-2.401172 -0.90039,-3.201172 -0.6,-0.8 -1.40039,-1.199219 -2.40039,-1.199219 z m 15.5,0 c -0.8,0 -1.60039,0.199219 -2.40039,0.699219 v 1.300781 c 0.8,-0.6 1.50117,-0.90039 2.20117,-0.90039 1,-10e-7 1.5,0.599218 1.5,1.699218 v 0.601563 l -2.09961,0.5 c -1.5,0.4 -2.30078,1.298828 -2.30078,2.798828 0,0.7 0.19961,1.201172 0.59961,1.701172 0.5,0.5 0.99961,0.699219 1.59961,0.699219 1,0 1.80117,-0.5 2.20117,-1.5 v 1.300781 l 1.29883,-0.101563 v -6 c 0,-1.9 -0.89961,-2.798828 -2.59961,-2.798828 z m -31.5,0.09961 c -0.7,0 -1.40039,0.199218 -1.90039,0.699218 -0.5,0.4 -0.79883,1.001172 -0.79883,1.701172 0,0.5 0.20039,0.898828 0.40039,1.298828 0.2,0.4 0.79961,0.800782 1.59961,1.300782 0.5,0.3 0.89961,0.600781 1.09961,0.800781 0.2,0.3 0.30078,0.498828 0.30078,0.798828 0,0.9 -0.5,1.400391 -1.5,1.400391 -0.6,-10e-7 -1.30039,-0.299219 -1.90039,-0.699219 v 1.199219 c 0.5,0.3 1.10039,0.499609 1.90039,0.599609 0.8,0 1.6,-0.299219 2,-0.699219 0.4,-0.4 0.69922,-1.001172 0.69922,-1.701172 0,-0.5 -0.10078,-0.898828 -0.30078,-1.298828 -0.2,-0.4 -0.79961,-0.800781 -1.59961,-1.300781 -0.6,-0.4 -0.99922,-0.700391 -1.19922,-0.900391 -0.2,-0.3 -0.30078,-0.498828 -0.30078,-0.798828 0,-0.4 0.10039,-0.7 0.40039,-1 0.3,-0.3 0.69961,-0.40039 1.09961,-0.40039 0.6,0 1.10117,0.2 1.70117,0.5 v -1.199219 c -0.5,-0.2 -1.10117,-0.300781 -1.70117,-0.300781 z m 6,0 c -0.7,0 -1.40039,0.199218 -1.90039,0.699218 -0.5,0.4 -0.79883,1.001172 -0.79883,1.701172 0,0.5 0.20039,0.898828 0.40039,1.298828 0.2,0.4 0.79961,0.800782 1.59961,1.300782 0.5,0.3 0.89961,0.600781 1.09961,0.800781 0.2,0.3 0.30078,0.498828 0.30078,0.798828 0,0.9 -0.5,1.400391 -1.5,1.400391 -0.6,-10e-7 -1.30039,-0.299219 -1.90039,-0.699219 v 1.199219 c 0.5,0.3 1.20039,0.499609 1.90039,0.599609 0.8,0 1.6,-0.299219 2,-0.699219 0.4,-0.4 0.69922,-1.001172 0.69922,-1.701172 0,-0.5 -0.10078,-0.898828 -0.30078,-1.298828 -0.2,-0.4 -0.79961,-0.800781 -1.59961,-1.300781 -0.6,-0.4 -0.99922,-0.700391 -1.19922,-0.900391 -0.2,-0.3 -0.30078,-0.498828 -0.30078,-0.798828 0,-0.4 0.10039,-0.7 0.40039,-1 0.3,-0.3 0.69961,-0.40039 1.09961,-0.40039 0.6,0 1.10117,0.2 1.70117,0.5 v -1.199219 c -0.5,-0.2 -1.10117,-0.300781 -1.70117,-0.300781 z m 18.30078,0 c -1,0 -1.80117,0.5 -2.20117,1.5 v -1.400391 h -1.19922 v 8.701172 h 1.19922 v -5.601563 c 0,-0.7 0.2,-1.199609 0.5,-1.599609 0.3,-0.4 0.80078,-0.599609 1.30078,-0.599609 1.1,0 1.59961,0.7 1.59961,2 v 5.800781 c 0,0.09999 1.30117,0.09961 1.20117,0.09961 V 56.3006 c 0,-1.9 -0.80039,-2.800781 -2.40039,-2.800782 z m -31.09961,0.09961 c -1,0 -1.80039,0.401172 -2.40039,1.201172 -0.6,0.8 -0.90039,1.899219 -0.90039,3.199219 0,1.5 0.30039,2.60039 0.90039,3.40039 0.6,0.8 1.4,1.199219 2.5,1.199219 0.8,0 1.49922,-0.19961 2.19922,-0.599609 V 60.8006 c -0.7,0.5 -1.3,0.699219 -2,0.699219 -1.5,-1e-6 -2.29883,-1.099219 -2.29883,-3.199219 l 4.79883,0.09961 v -0.800781 c 0,-2.7 -0.89883,-4 -2.79883,-4.000001 z m 16.5,0 V 62.3006 h 1.19922 v -8.701172 z m -16.60156,0.900391 c 1.1,-1e-6 1.70117,1.000781 1.70117,2.800781 h -3.59961 c 0.1,-0.9 0.29961,-1.601563 0.59961,-2.101563 0.3,-0.5 0.69883,-0.699218 1.29883,-0.699218 z m -11.798831,0.09961 c 0.6,0 1.100001,0.300781 1.500001,0.800781 0.3,0.6 0.5,1.4 0.5,2.5 0,2.3 -0.7,3.5 -2.000001,3.5 -1.3,0 -2,-1.100391 -2,-3.40039 0,-1.100001 0.1,-1.9 0.5,-2.5 0.4,-0.600001 0.9,-0.900391 1.5,-0.900391 z m 34.599611,0 c 0.7,0 1.1,0.300781 1.5,0.800781 0.3,0.6 0.5,1.4 0.5,2.5 0,2.3 -0.7,3.5 -2,3.5 -1.3,0 -2,-1.100391 -2,-3.40039 0,-1.100001 0.2,-1.9 0.5,-2.5 0.4,-0.600001 0.9,-0.900391 1.5,-0.900391 z m 16.90039,3.201172 0.0996,1.199219 c 0,0.8 -0.2,1.300781 -0.5,1.800781 -0.3,0.5 -0.70078,0.699219 -1.30078,0.699219 -0.4,0 -0.7,-0.100391 -1,-0.400391 -0.30004,-0.3 -0.39844,-0.699219 -0.39844,-1.199219 0,-0.9 0.39844,-1.501172 1.39844,-1.701172 z"
       id="rect4746"
       inkscape:connector-curvature="0"
       sodipodi:nodetypes="cccccsssccccccccccssccsscccccccccccssccccsssscscssscccsccccccccscccccccccccssssscssssssssssssccccscccccsssccsscsccscssscsssssscscssssssssccsssssccssccccccssccsssssccssccssscccssccscccccsssssscssscccccccccccsccccccccsccccccccccccccccsssssccccccsscscccccccccccssssscccccccccccscccccccccscccccccccccccccccccccccccssccsscccccssssscssssccssccssscccsssccssccscscccssscssccsscccsssccsssccssssssccsccsscsscccccscssccsccssscssssssssscsscsccssccsccccssccsccsssccccccccccssccscscccscscscscscccccscscscccscsccscccccssccsccccssssscsssssssscssssccssccscscccssscssccsccccsssccsssccsscssccsccccsssccsssccsscccccssssscsssssssccsccsscccccsccssscsssssscssscsccsscscc" /></g></svg>