<?xml version="1.0" encoding="UTF-8" standalone="no"?>
<!DOCTYPE svg PUBLIC "-//W3C//DTD SVG 1.1//EN" "http://www.w3.org/Graphics/SVG/1.1/DTD/svg11.dtd">
<svg width="100%" height="100%" viewBox="0 0 9927 8657" version="1.1" xmlns="http://www.w3.org/2000/svg" xmlns:xlink="http://www.w3.org/1999/xlink" xml:space="preserve" xmlns:serif="http://www.serif.com/" style="fill-rule:evenodd;clip-rule:evenodd;stroke-linejoin:round;stroke-miterlimit:2;">
    <g transform="matrix(3.125,0,0,3.125,0,0)">
        <g transform="matrix(1.581018,0,0,1.505772,1607.706049,-797.777387)">
            <path d="M940.424,553C954.103,553 967.221,558.705 976.894,568.861C986.566,579.017 992,592.791 992,607.154L992,2153L663,2153L663,553L940.424,553Z" style="fill:rgb(235,235,235);"/>
        </g>
        <g transform="matrix(1.123235,1.112786,-1.067763,1.078076,2767.376131,-1625.335693)">
            <path d="M895.715,612.088C910.765,598.448 933.425,599.463 947.294,614.397C957.363,625.24 966.678,635.27 966.678,635.27L992,2153L663,2153L675.809,811.377C675.809,811.377 831.784,670.025 895.715,612.088Z" style="fill:url(#_Linear1);"/>
        </g>
        <g transform="matrix(0.958213,-0.58486,0.66124,1.08364,-1183.82841,928.61936)">
            <path d="M2334,2064L2612,2809L2056,2809L2334,2064Z" style="fill:url(#_Linear2);"/>
        </g>
        <g transform="matrix(-1.581018,0,0,1.492447,1568.742808,-786.144297)">
            <path d="M948.347,553C959.925,553 971.028,557.872 979.214,566.544C987.401,575.217 992,586.979 992,599.243L992,2153L663,2153L663,553L948.347,553Z" style="fill:url(#_Linear3);"/>
        </g>
        <g transform="matrix(-0.958213,-0.58486,-0.66124,1.08364,4360.277267,911.562826)">
            <path d="M2334,2064L2612,2809L2056,2809L2334,2064Z" style="fill:url(#_Linear4);"/>
        </g>
        <g transform="matrix(-1.123235,1.112786,1.067763,1.078076,401.295124,-1626.757071)">
            <path d="M886.835,624.811C906.268,607.63 935.11,608.905 953.072,627.74C971.591,647.16 991.319,667.847 991.319,667.847L994.374,1631.085L665.374,1631.085L675.809,811.377C675.809,811.377 819.269,684.545 886.835,624.811Z" style="fill:url(#_Linear5);"/>
        </g>
    </g>
    <defs>
        <linearGradient id="_Linear1" x1="0" y1="0" x2="1" y2="0" gradientUnits="userSpaceOnUse" gradientTransform="matrix(-14.639953,-1532.736158,1470.918243,-15.255222,833.910359,1494.048428)"><stop offset="0" style="stop-color:rgb(235,235,235);stop-opacity:1"/><stop offset="1" style="stop-color:white;stop-opacity:1"/></linearGradient>
        <linearGradient id="_Linear2" x1="0" y1="0" x2="1" y2="0" gradientUnits="userSpaceOnUse" gradientTransform="matrix(37.857909,763.298889,-863.145486,33.387932,2329.983056,2274.827418)"><stop offset="0" style="stop-color:rgb(247,247,249);stop-opacity:1"/><stop offset="1" style="stop-color:rgb(212,212,212);stop-opacity:1"/></linearGradient>
        <linearGradient id="_Linear3" x1="0" y1="0" x2="1" y2="0" gradientUnits="userSpaceOnUse" gradientTransform="matrix(-1.265008,1677.781783,1583.789575,1.340081,841.699914,635.295219)"><stop offset="0" style="stop-color:rgb(50,1,108);stop-opacity:1"/><stop offset="1" style="stop-color:rgb(64,0,141);stop-opacity:1"/></linearGradient>
        <linearGradient id="_Linear4" x1="0" y1="0" x2="1" y2="0" gradientUnits="userSpaceOnUse" gradientTransform="matrix(-17.605609,-1406.644386,-1590.652745,15.402191,2357.581551,2789.018055)"><stop offset="0" style="stop-color:rgb(51,2,111);stop-opacity:1"/><stop offset="1" style="stop-color:rgb(113,35,209);stop-opacity:1"/></linearGradient>
        <linearGradient id="_Linear5" x1="0" y1="0" x2="1" y2="0" gradientUnits="userSpaceOnUse" gradientTransform="matrix(11.075223,1671.194965,1603.796283,-11.763434,818.786598,700.899288)"><stop offset="0" style="stop-color:rgb(50,1,110);stop-opacity:1"/><stop offset="1" style="stop-color:rgb(112,32,209);stop-opacity:1"/></linearGradient>
    </defs>
</svg>
