<?xml version="1.0" encoding="UTF-8" standalone="no"?>
<svg
   id="uuid-a4e43ecc-aab2-4cd1-b96a-e78d592bf90f"
   width="18"
   height="18"
   viewBox="0 0 18 18"
   version="1.1"
   sodipodi:docname="10222-icon-service-Entra-Domain-Services copy.svg"
   inkscape:version="1.4 (e7c3feb1, 2024-10-09)"
   xml:space="preserve"
   xmlns:inkscape="http://www.inkscape.org/namespaces/inkscape"
   xmlns:sodipodi="http://sodipodi.sourceforge.net/DTD/sodipodi-0.dtd"
   xmlns="http://www.w3.org/2000/svg"
   xmlns:svg="http://www.w3.org/2000/svg"><sodipodi:namedview
     id="namedview11"
     pagecolor="#ffffff"
     bordercolor="#000000"
     borderopacity="0.25"
     inkscape:showpageshadow="2"
     inkscape:pageopacity="0.0"
     inkscape:pagecheckerboard="0"
     inkscape:deskcolor="#d1d1d1"
     inkscape:zoom="27.832"
     inkscape:cx="5.1379707"
     inkscape:cy="9.0543261"
     inkscape:window-width="1808"
     inkscape:window-height="1087"
     inkscape:window-x="0"
     inkscape:window-y="0"
     inkscape:window-maximized="0"
     inkscape:current-layer="g11" /><defs
     id="defs8"><linearGradient
       id="uuid-f86ec683-0476-4385-a089-b5dcad587aad"
       x1="7.697"
       y1="779.107"
       x2="14.082"
       y2="786.57"
       gradientTransform="translate(0 791.516) scale(1 -1)"
       gradientUnits="userSpaceOnUse"><stop
         offset="0"
         stop-color="#225086"
         id="stop1" /><stop
         offset="1"
         stop-color="#0055c5"
         id="stop2" /></linearGradient><linearGradient
       id="uuid-e422b264-2789-4744-82bd-0e3fd46a156e"
       x1="6.364"
       y1="778.103"
       x2="6.364"
       y2="794.351"
       gradientTransform="translate(0 791.516) scale(1 -1)"
       gradientUnits="userSpaceOnUse"><stop
         offset="0"
         stop-color="#6df"
         id="stop3" /><stop
         offset="1"
         stop-color="#0294e4"
         id="stop4" /></linearGradient><linearGradient
       id="uuid-d74a81cd-bed3-408d-982d-4138865ce227"
       x1="9.001"
       y1="775.895"
       x2="9.001"
       y2="794.784"
       gradientTransform="translate(0 791.516) scale(1 -1)"
       gradientUnits="userSpaceOnUse"><stop
         offset="0"
         stop-color="#44dbf9"
         id="stop5" /><stop
         offset="1"
         stop-color="#cbf8ff"
         id="stop6" /></linearGradient><linearGradient
       id="uuid-30674763-cae5-42ba-a84b-66be33b27883"
       x1="13.5"
       y1="774.66"
       x2="13.5"
       y2="790.721"
       gradientTransform="translate(0 791.516) scale(1 -1)"
       gradientUnits="userSpaceOnUse"><stop
         offset="0"
         stop-color="#041642"
         id="stop7" /><stop
         offset="1"
         stop-color="#041642"
         stop-opacity=".25"
         id="stop8" /></linearGradient><linearGradient
       id="a2eeded5-bd74-4136-ade6-a04d837899ca"
       x1="9"
       y1="16.795"
       x2="9"
       y2="1.205"
       gradientUnits="userSpaceOnUse"
       gradientTransform="translate(-4,3.1247226e-5)"><stop
         offset="0"
         stop-color="#0078d4"
         id="stop1-2" /><stop
         offset="0.064"
         stop-color="#0a7cd7"
         id="stop2-4" /><stop
         offset="0.338"
         stop-color="#2e8ce1"
         id="stop3-8" /><stop
         offset="0.594"
         stop-color="#4897e9"
         id="stop4-3" /><stop
         offset="0.822"
         stop-color="#589eed"
         id="stop5-9" /><stop
         offset="1"
         stop-color="#5ea0ef"
         id="stop6-0" /></linearGradient></defs><g
     id="g10"><path
       d="m17.647,9.967L10.147,1.506c-.599-.676-1.694-.676-2.294,0L.353,9.967c-.579.654-.428,1.641.323,2.111l7.499,4.688c.5.313,1.148.313,1.648,0l7.499-4.688c.751-.469.902-1.457.323-2.111h0Z"
       fill="url(#uuid-f86ec683-0476-4385-a089-b5dcad587aad)"
       stroke-width="0"
       id="path8" /><path
       d="m10.148,1.506c-.599-.676-1.694-.676-2.294,0L.354,9.967c-.579.654-.428,1.641.323,2.111,0,0,2.776,1.735,3.126,1.954.388.242,1.033.511,1.715.511.621,0,1.197-.18,1.676-.487,0,0,0,0,.002-.001l1.804-1.128-4.364-2.728,4.474-5.047c.55-.627,1.377-1.026,2.302-1.026.472,0,.917.107,1.314.292l-2.579-2.909v-.002Z"
       fill="url(#uuid-e422b264-2789-4744-82bd-0e3fd46a156e)"
       stroke-width="0"
       id="path9" /><polygon
       points="4.636 10.199 4.688 10.231 9.001 12.927 9.001 12.927 13.365 10.199 13.366 10.199 13.365 10.199 9.001 5.274 4.636 10.199"
       fill="url(#uuid-d74a81cd-bed3-408d-982d-4138865ce227)"
       stroke-width="0"
       id="polygon9" /><path
       d="m9.001,17c.287,0,.574-.078.824-.234l7.499-4.688c.751-.469.902-1.457.323-2.111L10.148,1.506c-.3-.338-.723-.507-1.147-.507v16.001Z"
       fill="url(#uuid-30674763-cae5-42ba-a84b-66be33b27883)"
       fill-opacity=".5"
       isolation="isolate"
       opacity=".5"
       stroke-width="0"
       id="path10" /></g><g
     id="g11" /></svg>
