<svg width="20px" height="20px" version="1.1" viewBox="0 0 20 20" xmlns="http://www.w3.org/2000/svg">
 <title>i-20x20-Set Variables</title>
 <desc>Created with Sketch.</desc>
 <g id="i-20x20-Set-Variables" fill-rule="evenodd">
  <path d="m5.3118 17.134c-1.4642-0.021998-2.1962-0.84885-2.1962-2.4857v-2.4055c0-1.0805-0.37187-1.6472-1.1156-1.7003v-0.93037c0.74374-0.053053 1.1156-0.63016 1.1156-1.7313v-2.3421c0-1.6576 0.73208-2.4974 2.1962-2.5181v1.0261c-0.75772 0.020704-1.1378 0.55123-1.1378 1.5877v2.3499c0 1.1219-0.35671 1.8129-1.0725 2.0691v0.032349c0.71576 0.24068 1.0725 0.92519 1.0725 2.0535v2.3175c0 0.59264 0.085098 1.0171 0.25413 1.2694 0.16903 0.25362 0.46396 0.3869 0.88362 0.39854v1.0093z" fill="#00539C"/>
  <path d="m10.889 9.8898c0.36721 1.3223 0.8673 2.5855 1.0876 2.8747 0.1294 0.17121 0.26112 0.25682 0.39635 0.25682 0.10375 0.0023136 0.20517-0.026607 0.29143-0.085605 0.12473-0.092546 0.31941-0.32391 0.57937-0.69294l0.23315 0.13882c-0.38003 0.62469-0.75423 1.0654-1.1168 1.3211-0.27744 0.19897-0.54906 0.2973-0.81951 0.2973-0.27628 0-0.50593-0.062469-0.69128-0.18856-0.18302-0.12494-0.34739-0.32854-0.48961-0.61312-0.27278-0.59229-0.51059-1.1996-0.7111-1.8208-0.50593 0.65014-1.0352 1.2818-1.5866 1.8926-0.2891 0.30077-0.52808 0.49859-0.71809 0.59114-0.19001 0.092546-0.39751 0.13998-0.60851 0.13766-0.22615 0-0.40567-0.064782-0.53507-0.19897-0.13522-0.13535-0.2075-0.32275-0.19934-0.51479 0-0.22327 0.069944-0.40836 0.21333-0.55412 0.14455-0.14576 0.34156-0.22558 0.5444-0.21864 0.11657 0 0.24947 0.034705 0.39751 0.10643 0.21449 0.10643 0.37187 0.15964 0.46513 0.15964 0.11774 0.0023136 0.23431-0.02545 0.33923-0.079821 0.1294-0.065939 0.29493-0.20939 0.4931-0.42918 0.12124-0.13651 0.73907-0.88381 1.0631-1.3292-0.41383-1.5687-0.73907-2.5068-0.97339-2.8157-0.12706-0.18741-0.33573-0.29846-0.55838-0.2973-0.11541 0-0.70876 0.49744-0.8778 0.53214v-1.1267h2.7605c0.4115 0.65708 0.7006 1.3778 0.86964 2.1679 0.42549-0.63972 0.74723-1.0863 0.96289-1.3431 0.29143-0.34358 0.52924-0.56684 0.71576-0.67096 0.18885-0.1018 0.38935-0.15386 0.60152-0.15386 0.23897 0 0.42199 0.065939 0.54906 0.19782 0.13289 0.1446 0.20051 0.33779 0.19118 0.53445 0.0069943 0.19203-0.060618 0.37944-0.19118 0.51941-0.12473 0.13188-0.29843 0.20476-0.48028 0.20129-0.13639 0-0.2961-0.02545-0.47562-0.077507-0.12124-0.039332-0.24713-0.063625-0.37303-0.074037-0.19118 0.0034705-0.37537 0.07288-0.52108 0.19782-0.22382 0.18046-0.5001 0.56684-0.82767 1.158" fill="#424242"/>
  <path d="m18.304 10.542c-0.74374 0.054347-1.1156 0.61981-1.1156 1.7003v2.4055c0 1.6369-0.72975 2.465-2.1881 2.4857v-1.0093c0.41383-0.011646 0.70876-0.14492 0.88362-0.40243 0.17369-0.25621 0.25996-0.67804 0.25996-1.2655v-2.3175c0-1.1283 0.35555-1.8129 1.0666-2.0535v-0.032349c-0.7111-0.25621-1.0666-0.94589-1.0666-2.0691v-2.3486c0-1.0378-0.38119-1.567-1.1436-1.589v-1.0261c1.4583 0.021998 2.1881 0.86049 2.1881 2.5181v2.3421c0 1.1012 0.37187 1.6783 1.1156 1.7313v0.93037z" fill="#00539C"/>
 </g>
</svg>
