<svg width="134px" height="134px" version="1.1" viewBox="0 0 134 134" xmlns="http://www.w3.org/2000/svg">
 <title>Group 23</title>
 <desc>Created with Sketch.</desc>
 <g id="Overview" fill="none" fill-rule="evenodd">
  <g id="Group-2-Copy" transform="matrix(1.5521 0 0 1.5521 9.3805 34.429)">
   <g id="Group">
    <path id="Combined-Shape" d="m69.722 0c2.9152 0 5.2784 10.297 5.2784 23s-2.3632 23-5.2784 23h-15.835v-46z" fill="#4aabd4"/>
    <path d="m75 25.556c-0.40083 11.587-2.5894 20.444-5.2291 20.444h-15.884v-20.444z" fill="#0097c5"/>
    <ellipse id="Oval-6-Copy" cx="53.887" cy="23" rx="5.2784" ry="23" fill="#0070c8"/>
    <g transform="translate(22.216 5.1111)" fill="#4dbce1">
     <path d="m29.408 0c1.2494 0 2.2622 8.0091 2.2622 17.889 0 9.8798-1.0128 17.889-2.2622 17.889h-29.408v-35.778z"/>
     <path d="m29.408 0c1.2494 0 2.2622 8.0091 2.2622 17.889 0 9.8798-1.0128 17.889-2.2622 17.889h-29.408v-35.778z"/>
    </g>
    <path d="m51.624 5.1111c1.2494 0 2.2622 8.0091 2.2622 17.889 0 9.8798-1.0128 17.889-2.2622 17.889h-29.408v-35.778z" fill="#74c4de"/>
    <path d="m53.864 20.444c0.0151 0.83465 0.02291 1.6879 0.02291 2.5556 0 9.8798-1.0128 17.889-2.2622 17.889h-29.408v-20.444z" fill="#54b3d9"/>
    <path d="m22.216 0c2.9152 0 5.2784 10.297 5.2784 23s-2.3632 23-5.2784 23h-15.835v-46z" fill="#5cadd2"/>
    <path d="m27.495 25.556c-0.40083 11.587-2.5894 20.444-5.2291 20.444h-15.884v-20.444z" fill="#3797c4"/>
    <ellipse cx="6.3813" cy="23" rx="6.3813" ry="23" fill="#0070c8"/>
   </g>
   <ellipse cx="6.0662" cy="23.548" rx="3.8603" ry="18.071" fill="#acaba9"/>
   <path d="m8.6213 10.001c0.80045 3.3112 1.3052 8.153 1.3052 13.547 0 5.7897-0.5816 10.944-1.4862 14.251-1.081-2.5227-1.8226-7.7117-1.8226-13.703 0-6.3205 0.82523-11.748 2.0036-14.094z" fill="#4a4a4a"/>
  </g>
 </g>
</svg>
