<?xml version="1.0" encoding="UTF-8" standalone="no"?>
<svg
   xmlns:dc="http://purl.org/dc/elements/1.1/"
   xmlns:cc="http://creativecommons.org/ns#"
   xmlns:rdf="http://www.w3.org/1999/02/22-rdf-syntax-ns#"
   xmlns:svg="http://www.w3.org/2000/svg"
   xmlns="http://www.w3.org/2000/svg"
   xmlns:sodipodi="http://sodipodi.sourceforge.net/DTD/sodipodi-0.dtd"
   xmlns:inkscape="http://www.inkscape.org/namespaces/inkscape"
   viewBox="0 0 18 18"
   data-islogo="true"
   class=""
   role="presentation"
   focusable="false"
   id="FxSymbol0-101"
   data-type="164"
   version="1.1"
   sodipodi:docname="automation.svg"
   inkscape:export-filename="C:\Users\user\OneDrive\Personal\01. MarczakIO\images\tags\automation.png"
   inkscape:export-xdpi="5333.3301"
   inkscape:export-ydpi="5333.3301"
   inkscape:version="0.92.2 (5c3e80d, 2017-08-06)">
  <metadata
     id="metadata41">
    <rdf:RDF>
      <cc:Work
         rdf:about="">
        <dc:format>image/svg+xml</dc:format>
        <dc:type
           rdf:resource="http://purl.org/dc/dcmitype/StillImage" />
      </cc:Work>
    </rdf:RDF>
  </metadata>
  <defs
     id="defs39" />
  <sodipodi:namedview
     pagecolor="#ffffff"
     bordercolor="#666666"
     borderopacity="1"
     objecttolerance="10"
     gridtolerance="10"
     guidetolerance="10"
     inkscape:pageopacity="0"
     inkscape:pageshadow="2"
     inkscape:window-width="640"
     inkscape:window-height="480"
     id="namedview37"
     showgrid="false"
     inkscape:current-layer="FxSymbol0-101" />
  <g
     id="g34">
    <title
       id="title2" />
    <defs
       id="defs28">
      <linearGradient
         id="625a0f32-179e-41a5-86b3-52c643b8b93a"
         x1="11.612"
         y1="-451.091"
         x2="11.612"
         y2="-466.6"
         gradientTransform="matrix(1.156 0 0 1.029 -4.255 481.61)"
         gradientUnits="userSpaceOnUse">
        <stop
           offset="0"
           stop-color="#fea11b"
           id="stop4" />
        <stop
           offset=".284"
           stop-color="#fea51a"
           id="stop6" />
        <stop
           offset=".547"
           stop-color="#feb018"
           id="stop8" />
        <stop
           offset=".8"
           stop-color="#ffc314"
           id="stop10" />
        <stop
           offset="1"
           stop-color="#ffd70f"
           id="stop12" />
      </linearGradient>
      <linearGradient
         id="9581c896-e44f-4dbb-b2dd-1fa55dd52f94"
         x1="9"
         y1="17.892"
         x2="9"
         y2=".108"
         gradientUnits="userSpaceOnUse">
        <stop
           offset="0"
           stop-color="#0078d4"
           id="stop15" />
        <stop
           offset=".064"
           stop-color="#0a7cd7"
           id="stop17" />
        <stop
           offset=".338"
           stop-color="#2e8ce1"
           id="stop19" />
        <stop
           offset=".594"
           stop-color="#4897e9"
           id="stop21" />
        <stop
           offset=".822"
           stop-color="#589eed"
           id="stop23" />
        <stop
           offset="1"
           stop-color="#5ea0ef"
           id="stop25" />
      </linearGradient>
    </defs>
    <path
       d="M17.892 9.96V7.933l-.285-.107-2.169-.711-.569-1.387 1.1-2.348-1.42-1.422-.285.142-2.027 1.031-1.387-.569L9.96.108H7.933l-.107.285-.711 2.169-1.387.569-2.312-1.1-1.423 1.42.142.285 1.032 2.027L2.6 7.15l-2.49.89v2.027l.285.107 2.169.711.569 1.387-1.1 2.348 1.422 1.422.285-.142 2.027-1.031 1.387.569.89 2.454h2.027l.107-.285.711-2.169 1.387-.569 2.348 1.1 1.422-1.422-.142-.285-1.031-2.027.569-1.387zM9 12.9A3.9 3.9 0 1 1 12.9 9 3.9 3.9 0 0 1 9 12.9z"
       fill="url(#9581c896-e44f-4dbb-b2dd-1fa55dd52f94)"
       id="path30" />
    <path
       d="M8.459 10.512H4.87a.193.193 0 0 1-.2-.181.162.162 0 0 1 .018-.074l4.303-8.509a.207.207 0 0 1 .186-.107h4.245a.193.193 0 0 1 .2.181.165.165 0 0 1-.035.1L8.534 8.584h4.928a.193.193 0 0 1 .2.181.171.171 0 0 1-.052.121l-8.193 8.52c-.077.045-.624.5-.356-.189z"
       fill="url(#625a0f32-179e-41a5-86b3-52c643b8b93a)"
       id="path32" />
  </g>
</svg>
