<?xml version="1.0" encoding="UTF-8" standalone="no"?>
<svg
   xmlns:dc="http://purl.org/dc/elements/1.1/"
   xmlns:cc="http://creativecommons.org/ns#"
   xmlns:rdf="http://www.w3.org/1999/02/22-rdf-syntax-ns#"
   xmlns:svg="http://www.w3.org/2000/svg"
   xmlns="http://www.w3.org/2000/svg"
   xmlns:sodipodi="http://sodipodi.sourceforge.net/DTD/sodipodi-0.dtd"
   xmlns:inkscape="http://www.inkscape.org/namespaces/inkscape"
   id="Layer_1"
   data-name="Layer 1"
   viewBox="0 0 64 64"
   version="1.1"
   sodipodi:docname="java.svg"
   inkscape:export-filename="C:\Users\user\OneDrive\Personal\01. MarczakIO\images\tags\java.png"
   inkscape:export-xdpi="300"
   inkscape:export-ydpi="300"
   inkscape:version="0.92.2 (5c3e80d, 2017-08-06)">
  <metadata
     id="metadata27">
    <rdf:RDF>
      <cc:Work
         rdf:about="">
        <dc:format>image/svg+xml</dc:format>
        <dc:type
           rdf:resource="http://purl.org/dc/dcmitype/StillImage" />
      </cc:Work>
    </rdf:RDF>
  </metadata>
  <sodipodi:namedview
     pagecolor="#ffffff"
     bordercolor="#666666"
     borderopacity="1"
     objecttolerance="10"
     gridtolerance="10"
     guidetolerance="10"
     inkscape:pageopacity="0"
     inkscape:pageshadow="2"
     inkscape:window-width="640"
     inkscape:window-height="480"
     id="namedview25"
     showgrid="false"
     inkscape:current-layer="Layer_1" />
  <defs
     id="defs4">
    <style
       id="style2">.cls-1{fill:#5382a1;}.cls-1,.cls-2{opacity:0.97;}.cls-2{fill:#e76f00;}</style>
  </defs>
  <title
     id="title6">logo_java</title>
  <path
     class="cls-1"
     d="M23.7,49.49s-2.45,1.42,1.74,1.9a36.62,36.62,0,0,0,13.25-.56,23.06,23.06,0,0,0,3.52,1.72c-12.53,5.37-28.35-.31-18.51-3.06"
     id="path8" />
  <path
     class="cls-1"
     d="M22.17,42.49s-2.74,2,1.45,2.46a51.7,51.7,0,0,0,17.1-.82,7.59,7.59,0,0,0,2.63,1.61c-15.15,4.43-32,.35-21.18-3.25"
     id="path10" />
  <path
     class="cls-2"
     d="M35.08,30.6c3.09,3.55-.81,6.75-.81,6.75s7.84-4,4.24-9.11c-3.36-4.73-5.94-7.07,8-15.17,0,0-21.91,5.47-11.45,17.53"
     id="path12" />
  <path
     class="cls-1"
     d="M51.65,54.68s1.81,1.49-2,2.64c-7.23,2.19-30.1,2.85-36.45.09-2.28-1,2-2.37,3.35-2.66a8.69,8.69,0,0,1,2.21-.25c-2.54-1.79-16.41,3.51-7,5,25.54,4.14,46.57-1.87,39.94-4.85"
     id="path14" />
  <path
     class="cls-1"
     d="M24.88,35.23S13.25,38,20.76,39a87.37,87.37,0,0,0,15.39-.16c4.81-.41,9.65-1.27,9.65-1.27a20.42,20.42,0,0,0-2.93,1.57C31.05,42.23,8.24,40.79,14.8,37.61a22,22,0,0,1,10.07-2.38"
     id="path16" />
  <path
     class="cls-1"
     d="M45.74,46.89c12-6.24,6.46-12.24,2.58-11.43a9,9,0,0,0-1.37.37A2.19,2.19,0,0,1,48,35c7.67-2.7,13.56,7.95-2.47,12.16a1,1,0,0,0,.24-.31"
     id="path18" />
  <path
     class="cls-2"
     d="M38.5,0s6.65,6.65-6.31,16.88c-10.39,8.21-2.37,12.88,0,18.23-6.06-5.47-10.52-10.29-7.53-14.77C29,13.76,41.19,10.57,38.5,0"
     id="path20" />
  <path
     class="cls-1"
     d="M26.06,63.8c11.53.74,29.22-.41,29.64-5.86,0,0-.81,2.07-9.53,3.71A94.76,94.76,0,0,1,17,62.09s1.47,1.22,9,1.7"
     id="path22" />
</svg>
