<?xml version="1.0" encoding="UTF-8" standalone="no"?>
<svg
   xmlns:dc="http://purl.org/dc/elements/1.1/"
   xmlns:cc="http://creativecommons.org/ns#"
   xmlns:rdf="http://www.w3.org/1999/02/22-rdf-syntax-ns#"
   xmlns:svg="http://www.w3.org/2000/svg"
   xmlns="http://www.w3.org/2000/svg"
   xmlns:sodipodi="http://sodipodi.sourceforge.net/DTD/sodipodi-0.dtd"
   xmlns:inkscape="http://www.inkscape.org/namespaces/inkscape"
   viewBox="0 0 17 17"
   class=""
   role="presentation"
   focusable="false"
   id="FxSymbol0-0bd"
   data-type="1"
   version="1.1"
   sodipodi:docname="key-vault.svg"
   inkscape:export-filename="C:\Users\user\OneDrive\Personal\01. MarczakIO\images\tags\key-vault.png"
   inkscape:export-xdpi="6776.4702"
   inkscape:export-ydpi="6776.4702"
   inkscape:version="1.0.1 (3bc2e813f5, 2020-09-07)"
   width="17"
   height="17">
  <metadata
     id="metadata51">
    <rdf:RDF>
      <cc:Work
         rdf:about="">
        <dc:format>image/svg+xml</dc:format>
        <dc:type
           rdf:resource="http://purl.org/dc/dcmitype/StillImage" />
        <dc:title></dc:title>
      </cc:Work>
    </rdf:RDF>
  </metadata>
  <defs
     id="defs49" />
  <sodipodi:namedview
     pagecolor="#ffffff"
     bordercolor="#666666"
     borderopacity="1"
     objecttolerance="10"
     gridtolerance="10"
     guidetolerance="10"
     inkscape:pageopacity="0"
     inkscape:pageshadow="2"
     inkscape:window-width="1500"
     inkscape:window-height="947"
     id="namedview47"
     showgrid="false"
     inkscape:current-layer="g44"
     inkscape:document-rotation="0"
     inkscape:zoom="33.783991"
     inkscape:cx="8.4218424"
     inkscape:cy="7.0110223"
     inkscape:window-x="-8"
     inkscape:window-y="-8"
     inkscape:window-maximized="1"
     fit-margin-top="0"
     fit-margin-left="0"
     fit-margin-right="0"
     fit-margin-bottom="0" />
  <g
     id="g44"
     transform="translate(-0.5,-0.5)">
    <title
       id="title2" />
    <defs
       id="defs30">
      <radialGradient
         id="ec478bd3-5b38-4e7f-b661-11f355578bff"
         cx="38.950001"
         cy="182.07001"
         r="9.8800001"
         gradientTransform="matrix(0.94,0,0,0.94,-28.71,-163.24)"
         gradientUnits="userSpaceOnUse">
        <stop
           offset=".27"
           stop-color="#ffd70f"
           id="stop4" />
        <stop
           offset=".49"
           stop-color="#ffcb12"
           id="stop6" />
        <stop
           offset=".88"
           stop-color="#feac19"
           id="stop8" />
        <stop
           offset="1"
           stop-color="#fea11b"
           id="stop10" />
      </radialGradient>
      <radialGradient
         id="fb114c93-7c16-4540-899a-0796041629e6"
         cx="9"
         cy="9"
         r="8.5"
         gradientUnits="userSpaceOnUse">
        <stop
           offset=".18"
           stop-color="#5ea0ef"
           id="stop13" />
        <stop
           offset=".56"
           stop-color="#5c9fee"
           id="stop15" />
        <stop
           offset=".69"
           stop-color="#559ced"
           id="stop17" />
        <stop
           offset=".78"
           stop-color="#4a97e9"
           id="stop19" />
        <stop
           offset=".86"
           stop-color="#3990e4"
           id="stop21" />
        <stop
           offset=".93"
           stop-color="#2387de"
           id="stop23" />
        <stop
           offset=".99"
           stop-color="#087bd6"
           id="stop25" />
        <stop
           offset="1"
           stop-color="#0078d4"
           id="stop27" />
      </radialGradient>
    </defs>
    <path
       d="M 9,0.5 A 8.5,8.5 0 1 0 17.5,9 8.51,8.51 0 0 0 9,0.5 Z M 9,16.34 A 7.34,7.34 0 1 1 16.34,9 7.34,7.34 0 0 1 9,16.34 Z"
       fill="url(#fb114c93-7c16-4540-899a-0796041629e6)"
       id="path32"
       style="fill:url(#fb114c93-7c16-4540-899a-0796041629e6)" />
    <path
       d="m 13.44,7.33 a 1.84,1.84 0 0 0 0,-2.59 L 10.29,1.58 a 1.83,1.83 0 0 0 -2.58,0 L 4.56,4.74 a 1.84,1.84 0 0 0 0,2.59 L 7.18,10 a 0.51,0.51 0 0 1 0.15,0.36 v 4.88 a 0.63,0.63 0 0 0 0.18,0.44 l 1.2,1.2 a 0.41,0.41 0 0 0 0.58,0 l 1.16,-1.16 0.68,-0.68 a 0.25,0.25 0 0 0 0,-0.34 l -0.49,-0.49 a 0.27,0.27 0 0 1 0,-0.37 l 0.49,-0.49 a 0.25,0.25 0 0 0 0,-0.34 l -0.49,-0.49 a 0.27,0.27 0 0 1 0,-0.37 l 0.49,-0.49 a 0.25,0.25 0 0 0 0,-0.34 L 10.45,10.63 V 10.38 Z M 9,2.35 A 1.035,1.035 0 0 1 9,4.42 1.035,1.035 0 1 1 9,2.35 Z"
       fill="url(#ec478bd3-5b38-4e7f-b661-11f355578bff)"
       id="path36"
       style="fill:url(#ec478bd3-5b38-4e7f-b661-11f355578bff)" />
    <path
       d="m 8.18,15.3 a 0.23,0.23 0 0 0 0.38,-0.17 v -4 a 0.24,0.24 0 0 0 -0.11,-0.2 0.22,0.22 0 0 0 -0.34,0.2 v 4 a 0.28,0.28 0 0 0 0.07,0.17 z"
       fill="#ff9300"
       opacity="0.75"
       id="path38" />
    <rect
       x="6.48"
       y="5.79"
       width="5.1700001"
       height="0.61000001"
       rx="0.28"
       fill="#ff9300"
       opacity="0.75"
       id="rect40" />
    <rect
       x="6.48"
       y="6.7800002"
       width="5.1700001"
       height="0.61000001"
       rx="0.28"
       fill="#ff9300"
       opacity="0.75"
       id="rect42" />
  </g>
</svg>
