<?xml version="1.0" encoding="UTF-8" standalone="no"?>
<svg
   xmlns:dc="http://purl.org/dc/elements/1.1/"
   xmlns:cc="http://creativecommons.org/ns#"
   xmlns:rdf="http://www.w3.org/1999/02/22-rdf-syntax-ns#"
   xmlns:svg="http://www.w3.org/2000/svg"
   xmlns="http://www.w3.org/2000/svg"
   id="svg8"
   version="1.1"
   viewBox="0 0 70.303574 51.215771"
   height="51.215771mm"
   width="70.303574mm">
  <defs
     id="defs2" />
  <metadata
     id="metadata5">
    <rdf:RDF>
      <cc:Work
         rdf:about="">
        <dc:format>image/svg+xml</dc:format>
        <dc:type
           rdf:resource="http://purl.org/dc/dcmitype/StillImage" />
        <dc:title></dc:title>
      </cc:Work>
    </rdf:RDF>
  </metadata>
  <g
     transform="translate(-67.468742,-96.200144)"
     id="layer1">
    <rect
       transform="matrix(1,0,-0.22416524,0.97455115,0,0)"
       y="98.712257"
       x="101.3772"
       height="52.553188"
       width="58.522972"
       id="rect830"
       style="opacity:1;fill:#2768ff;fill-opacity:1;stroke:none;stroke-width:4.38983965;stroke-linecap:butt;stroke-linejoin:round;stroke-miterlimit:4;stroke-dasharray:none;stroke-dashoffset:0;stroke-opacity:1;paint-order:fill markers stroke" />
    <rect
       ry="2.9765599"
       y="134.56474"
       x="96.60302"
       height="5.9531198"
       width="18.871611"
       id="rect832"
       style="opacity:1;fill:#ffffff;fill-opacity:1;stroke:none;stroke-width:4.69002008;stroke-linecap:butt;stroke-linejoin:round;stroke-miterlimit:4;stroke-dasharray:none;stroke-dashoffset:0;stroke-opacity:1;paint-order:fill markers stroke" />
    <path
       id="rect832-5"
       transform="scale(0.26458333)"
       d="m 356.20257,385.99945 c -3.25823,-0.11262 -7.45337,1.6357 -10.03544,4.02148 -5.16413,4.77155 -7.22331,11.48093 -2.40095,16.59766 l 47.15905,54.35183 -74.84711,55.2952 c -4.80914,3.47499 -5.90124,10.15622 -2.44726,14.98047 3.45397,4.82426 12.37971,6.66815 17.18886,3.19316 l 89.53184,-67.09355 c 4.748,-3.55806 6.02556,-8.32531 2.57159,-13.14957 l -11.58663,-13.29691 -46.24918,-50.88024 c -2.41118,-2.55836 -5.62654,-3.90692 -8.88477,-4.01953 z"
       style="opacity:1;fill:#ffffff;fill-opacity:1;stroke:none;stroke-width:23.76610184;stroke-linecap:butt;stroke-linejoin:round;stroke-miterlimit:4;stroke-dasharray:none;stroke-dashoffset:0;stroke-opacity:1;paint-order:fill markers stroke" />
  </g>
</svg>
