<?xml version="1.0" encoding="UTF-8" standalone="no"?>
<svg
   xmlns:dc="http://purl.org/dc/elements/1.1/"
   xmlns:cc="http://creativecommons.org/ns#"
   xmlns:rdf="http://www.w3.org/1999/02/22-rdf-syntax-ns#"
   xmlns:svg="http://www.w3.org/2000/svg"
   xmlns="http://www.w3.org/2000/svg"
   xmlns:sodipodi="http://sodipodi.sourceforge.net/DTD/sodipodi-0.dtd"
   xmlns:inkscape="http://www.inkscape.org/namespaces/inkscape"
   version="1.1"
   data-type="165"
   id="FxSymbol0-0ed"
   focusable="false"
   role="presentation"
   class=""
   data-islogo="true"
   viewBox="0 0 18 18"
   sodipodi:docname="sql.svg"
   inkscape:export-filename="C:\Users\user\OneDrive\Personal\01. MarczakIO\images\tags\sql.png"
   inkscape:export-xdpi="5333.3301"
   inkscape:export-ydpi="5333.3301"
   inkscape:version="0.92.2 (5c3e80d, 2017-08-06)">
  <sodipodi:namedview
     pagecolor="#ffffff"
     bordercolor="#666666"
     borderopacity="1"
     objecttolerance="10"
     gridtolerance="10"
     guidetolerance="10"
     inkscape:pageopacity="0"
     inkscape:pageshadow="2"
     inkscape:window-width="640"
     inkscape:window-height="480"
     id="namedview25"
     showgrid="false"
     inkscape:current-layer="FxSymbol0-0ed" />
  <metadata
     id="metadata45">
    <rdf:RDF>
      <cc:Work
         rdf:about="">
        <dc:format>image/svg+xml</dc:format>
        <dc:type
           rdf:resource="http://purl.org/dc/dcmitype/StillImage" />
        <dc:title />
      </cc:Work>
    </rdf:RDF>
  </metadata>
  <defs
     id="defs43" />
  <g
     id="g38">
    <title
       id="title2" />
    <defs
       id="defs26">
      <radialGradient
         gradientUnits="userSpaceOnUse"
         r="7.07"
         cy="10.57"
         cx="9.36"
         id="aec9219a-e0d6-4db5-b9da-e04bccb38492">
        <stop
           id="stop4"
           stop-color="#f2f2f2"
           offset="0" />
        <stop
           id="stop6"
           stop-color="#eee"
           offset=".58" />
        <stop
           id="stop8"
           stop-color="#e6e6e6"
           offset="1" />
      </radialGradient>
      <linearGradient
         gradientUnits="userSpaceOnUse"
         y2="10.16"
         x2="15.41"
         y1="10.16"
         x1="2.59"
         id="2cd58c85-8c17-4518-a234-881b046986cf">
        <stop
           id="stop11"
           stop-color="#005ba1"
           offset="0" />
        <stop
           id="stop13"
           stop-color="#0060a9"
           offset=".07" />
        <stop
           id="stop15"
           stop-color="#0071c8"
           offset=".36" />
        <stop
           id="stop17"
           stop-color="#0078d4"
           offset=".52" />
        <stop
           id="stop19"
           stop-color="#0074cd"
           offset=".64" />
        <stop
           id="stop21"
           stop-color="#006abb"
           offset=".82" />
        <stop
           id="stop23"
           stop-color="#005ba1"
           offset="1" />
      </linearGradient>
    </defs>
    <path
       id="path28"
       fill="url(#2cd58c85-8c17-4518-a234-881b046986cf)"
       d="M9 5.14c-3.54 0-6.41-1-6.41-2.32v12.36c0 1.27 2.82 2.3 6.32 2.32H9c3.54 0 6.41-1 6.41-2.32V2.82c0 1.29-2.87 2.32-6.41 2.32z" />
    <path
       id="path30"
       fill="#e8e8e8"
       d="M15.41 2.82c0 1.29-2.87 2.32-6.41 2.32s-6.41-1-6.41-2.32S5.46.5 9 .5s6.41 1 6.41 2.32" />
    <path
       id="path32"
       fill="#50e6ff"
       d="M13.92 2.63c0 .82-2.21 1.48-4.92 1.48s-4.92-.66-4.92-1.48S6.29 1.16 9 1.16s4.92.66 4.92 1.47" />
    <path
       id="path34"
       fill="#198ab3"
       d="M9 3a11.55 11.55 0 0 0-3.89.57A11.42 11.42 0 0 0 9 4.11a11.15 11.15 0 0 0 3.89-.58A11.84 11.84 0 0 0 9 3z" />
    <path
       id="path36"
       fill="url(#aec9219a-e0d6-4db5-b9da-e04bccb38492)"
       d="M12.9 11.4V8H12v4.13h2.46v-.73zM5.76 9.73a1.83 1.83 0 0 1-.51-.31.44.44 0 0 1-.12-.32.34.34 0 0 1 .15-.3.68.68 0 0 1 .42-.12 1.62 1.62 0 0 1 1 .29v-.86a2.58 2.58 0 0 0-1-.16 1.64 1.64 0 0 0-1.09.34 1.08 1.08 0 0 0-.42.89c0 .51.32.91 1 1.21a2.88 2.88 0 0 1 .62.36.42.42 0 0 1 .15.32.38.38 0 0 1-.16.31.81.81 0 0 1-.45.11 1.66 1.66 0 0 1-1.09-.42V12a2.17 2.17 0 0 0 1.07.24 1.88 1.88 0 0 0 1.18-.33 1.08 1.08 0 0 0 .33-.91 1.05 1.05 0 0 0-.25-.7 2.42 2.42 0 0 0-.83-.57zM11 11.32a2.34 2.34 0 0 0 .33-1.26A2.32 2.32 0 0 0 11 9a1.81 1.81 0 0 0-.7-.75 2 2 0 0 0-1-.26 2.11 2.11 0 0 0-1.08.27 1.86 1.86 0 0 0-.73.74 2.46 2.46 0 0 0-.26 1.14 2.26 2.26 0 0 0 .24 1 1.76 1.76 0 0 0 .69.74 2.06 2.06 0 0 0 1 .3l.86 1h1.21L10 12.08a1.79 1.79 0 0 0 1-.76zm-1-.25a.94.94 0 0 1-.76.35.92.92 0 0 1-.76-.36 1.52 1.52 0 0 1-.29-1 1.53 1.53 0 0 1 .29-1 1 1 0 0 1 .78-.37.87.87 0 0 1 .75.37 1.62 1.62 0 0 1 .27 1 1.46 1.46 0 0 1-.28 1.01z" />
  </g>
</svg>
