<?xml version="1.0" encoding="UTF-8" standalone="no"?>
<svg
   xmlns:dc="http://purl.org/dc/elements/1.1/"
   xmlns:cc="http://creativecommons.org/ns#"
   xmlns:rdf="http://www.w3.org/1999/02/22-rdf-syntax-ns#"
   xmlns:svg="http://www.w3.org/2000/svg"
   xmlns="http://www.w3.org/2000/svg"
   xmlns:sodipodi="http://sodipodi.sourceforge.net/DTD/sodipodi-0.dtd"
   xmlns:inkscape="http://www.inkscape.org/namespaces/inkscape"
   viewBox="0 0 18 18"
   data-islogo="true"
   class=""
   role="presentation"
   focusable="false"
   id="FxSymbol0-025"
   data-type="71"
   version="1.1"
   sodipodi:docname="vm.svg"
   inkscape:export-filename="C:\Users\user\OneDrive\Personal\01. MarczakIO\images\tags\vm.png"
   inkscape:export-xdpi="6400"
   inkscape:export-ydpi="6400"
   inkscape:version="0.92.2 (5c3e80d, 2017-08-06)">
  <metadata
     id="metadata37">
    <rdf:RDF>
      <cc:Work
         rdf:about="">
        <dc:format>image/svg+xml</dc:format>
        <dc:type
           rdf:resource="http://purl.org/dc/dcmitype/StillImage" />
      </cc:Work>
    </rdf:RDF>
  </metadata>
  <defs
     id="defs35" />
  <sodipodi:namedview
     pagecolor="#ffffff"
     bordercolor="#666666"
     borderopacity="1"
     objecttolerance="10"
     gridtolerance="10"
     guidetolerance="10"
     inkscape:pageopacity="0"
     inkscape:pageshadow="2"
     inkscape:window-width="640"
     inkscape:window-height="480"
     id="namedview33"
     showgrid="false"
     inkscape:current-layer="FxSymbol0-025" />
  <g
     id="g30">
    <title
       id="title2" />
    <defs
       id="defs14">
      <linearGradient
         id="d58a7efe-239c-4678-aeab-4c0c6e658145"
         x1="8.88"
         y1="16.84"
         x2="8.88"
         y2="12.21"
         gradientUnits="userSpaceOnUse">
        <stop
           offset=".15"
           stop-color="#ccc"
           id="stop4" />
        <stop
           offset="1"
           stop-color="#707070"
           id="stop6" />
      </linearGradient>
      <linearGradient
         id="1d03f79a-96a0-4d61-a23a-1ddcc58a51d4"
         x1="8.88"
         y1="12.21"
         x2="8.88"
         y2=".21"
         gradientUnits="userSpaceOnUse">
        <stop
           offset="0"
           stop-color="#0078d4"
           id="stop9" />
        <stop
           offset=".82"
           stop-color="#5ea0ef"
           id="stop11" />
      </linearGradient>
    </defs>
    <rect
       x="-.12"
       y=".21"
       width="18"
       height="12"
       rx=".6"
       fill="url(#1d03f79a-96a0-4d61-a23a-1ddcc58a51d4)"
       id="rect16" />
    <path
       fill="#50e6ff"
       d="M11.88 4.46v3.49l-3 1.76v-3.5l3-1.75z"
       id="path18" />
    <path
       fill="#c3f1ff"
       d="M11.88 4.46l-3 1.76-3-1.76 3-1.75 3 1.75z"
       id="path20" />
    <path
       fill="#9cebff"
       d="M8.88 6.22v3.49l-3-1.76V4.46l3 1.76z"
       id="path22" />
    <path
       fill="#c3f1ff"
       d="M5.88 7.95l3-1.74v3.5l-3-1.76z"
       id="path24" />
    <path
       fill="#9cebff"
       d="M11.88 7.95l-3-1.74v3.5l3-1.76z"
       id="path26" />
    <path
       d="M12.49 15.84c-1.78-.28-1.85-1.56-1.85-3.63H7.11c0 2.07-.06 3.35-1.84 3.63a1 1 0 0 0-.89 1h9a1 1 0 0 0-.89-1z"
       fill="url(#d58a7efe-239c-4678-aeab-4c0c6e658145)"
       id="path28" />
  </g>
</svg>
